<?xml version="1.0" encoding="UTF-8" standalone="no"?>
<!-- Created with Inkscape (http://www.inkscape.org/) -->

<svg
   width="158.75mm"
   height="158.75mm"
   viewBox="0 0 158.75 158.75"
   version="1.1"
   id="svg5"
   inkscape:version="1.1.1 (3bf5ae0d25, 2021-09-20)"
   sodipodi:docname="css.svg"
   xmlns:inkscape="http://www.inkscape.org/namespaces/inkscape"
   xmlns:sodipodi="http://sodipodi.sourceforge.net/DTD/sodipodi-0.dtd"
   xmlns="http://www.w3.org/2000/svg"
   xmlns:svg="http://www.w3.org/2000/svg">
  <sodipodi:namedview
     id="namedview7"
     pagecolor="#ffffff"
     bordercolor="#666666"
     borderopacity="1.0"
     inkscape:pageshadow="2"
     inkscape:pageopacity="0.0"
     inkscape:pagecheckerboard="0"
     inkscape:document-units="mm"
     showgrid="false"
     fit-margin-top="0"
     fit-margin-left="0"
     fit-margin-right="0"
     fit-margin-bottom="0"
     inkscape:zoom="1.6277344"
     inkscape:cx="380.89752"
     inkscape:cy="379.36164"
     inkscape:window-width="1600"
     inkscape:window-height="871"
     inkscape:window-x="-9"
     inkscape:window-y="-9"
     inkscape:window-maximized="1"
     inkscape:current-layer="layer2" />
  <defs
     id="defs2" />
  <g
     inkscape:label="Layer 1"
     inkscape:groupmode="layer"
     id="layer1"
     transform="translate(-25.678406,-83.837082)"
     style="display:none">
    <rect
       style="fill:none;stroke-width:0.264583"
       id="rect308"
       width="1.1378289"
       height="29.746099"
       x="206.10558"
       y="212.08665" />
    <rect
       style="fill:none;stroke-width:0.264583"
       id="rect310"
       width="7.3146148"
       height="5.5265975"
       x="201.39171"
       y="233.21777" />
    <rect
       style="fill:none;stroke-width:0.264583"
       id="rect315"
       width="12.353571"
       height="37.873447"
       x="130.52121"
       y="216.96307" />
    <path
       style="fill:none;stroke-width:0.614351"
       d="m 599.29924,700.3221 c -3.71682,-1.20411 -18.78377,-5.46899 -33.48212,-9.47752 -14.69834,-4.00852 -28.93592,-7.97395 -31.63907,-8.81206 -2.70314,-0.8381 -9.17919,-2.67349 -14.39121,-4.07864 -10.02127,-2.70171 -12.5827,-3.71037 -13.14528,-5.17644 -0.70687,-1.84206 -1.69198,-11.15527 -3.80553,-35.9774 -1.1928,-14.00859 -2.43583,-27.27857 -2.76229,-29.48884 -0.32645,-2.21027 -1.99105,-20.74438 -3.69912,-41.1869 -1.70806,-20.44253 -3.51982,-41.03864 -4.02614,-45.76914 -3.04864,-28.48327 -8.68611,-97.74777 -8.01068,-98.42278 0.2684,-0.26824 55.49005,-0.48771 122.71477,-0.48771 107.97756,0 122.29467,0.10744 122.80926,0.92153 0.32038,0.50684 0.58626,3.27142 0.59087,6.14351 0.0138,8.63152 -3.29302,50.00804 -5.20453,65.12119 -0.9974,7.88582 -2.32794,22.7533 -5.52554,61.74226 -1.1916,14.52939 -2.85336,32.91384 -3.69281,40.85433 -0.83945,7.94048 -2.36103,24.52795 -3.38128,36.86105 -2.19472,26.53014 -2.89461,33.62207 -3.73855,37.88242 -0.57416,2.89841 -0.83403,3.25393 -3.01709,4.12742 -1.31385,0.5257 -14.08545,4.13201 -28.38133,8.01403 -14.29588,3.88202 -28.61886,7.8675 -31.82884,8.85663 -3.20998,0.98913 -10.67435,3.06477 -16.58747,4.61253 -5.91313,1.54776 -12.35412,3.38376 -14.31331,4.08 -6.00946,2.13559 -7.97578,2.09248 -15.48271,-0.33947 z m 19.2519,-55.02154 c 3.26507,-0.70685 9.25398,-2.36652 13.3087,-3.68814 4.05471,-1.32163 11.99576,-3.64532 17.64676,-5.16375 11.24117,-3.02051 18.79016,-5.53863 19.97694,-6.66372 1.0115,-0.95891 1.83641,-7.70905 2.8997,-23.72785 0.48221,-7.2647 1.28846,-14.72906 1.79166,-16.58747 0.50321,-1.85841 1.21094,-7.96517 1.57275,-13.57057 0.36181,-5.6054 0.94132,-11.72519 1.28782,-13.59953 0.42959,-2.32387 0.4302,-4.29934 0.002,-6.21037 -0.47712,-2.12903 -0.41416,-3.65899 0.262,-6.36686 0.48953,-1.96043 1.18367,-9.09356 1.54255,-15.85142 0.35887,-6.75786 0.90802,-14.63691 1.22032,-17.509 0.3123,-2.87209 0.75717,-8.88043 0.98859,-13.35187 0.2959,-5.7173 0.671,-8.33757 1.26402,-8.82972 1.11077,-0.92186 1.06461,-2.1353 -0.16008,-4.20853 -0.95516,-1.61697 -0.93555,-1.79017 0.40864,-3.60828 1.90788,-2.58055 2.41984,-8.06016 0.87303,-9.34419 -0.93086,-0.77272 -10.734,-0.9244 -70.5621,-1.09179 -38.21458,-0.10692 -72.06955,-0.01 -75.23326,0.21613 l -5.7522,0.41053 0.29175,10.22783 c 0.16046,5.62531 0.64512,11.64125 1.07701,13.36876 l 0.78526,3.14091 4.98237,0.38792 c 2.7403,0.21335 25.71671,0.42706 51.05868,0.4749 25.34197,0.0479 49.3938,0.25684 53.44852,0.46445 l 7.37221,0.37746 -0.0954,7.37221 c -0.11717,9.05176 -1.78478,21.77026 -3.01871,23.02303 -0.76798,0.7797 -8.42756,0.95711 -54.79525,1.26913 -29.64635,0.19949 -54.36489,0.57325 -54.93008,0.83056 -0.56518,0.25731 -1.17605,0.85467 -1.35747,1.32745 -0.70022,1.82474 1.97423,25.56358 2.99503,26.58438 0.20808,0.20807 22.96373,0.56793 50.56813,0.79969 48.74158,0.40921 54.34329,0.64997 55.41353,2.38166 0.23998,0.38831 0.22579,1.8597 -0.0315,3.26977 -0.25733,1.41007 -1.05531,8.92229 -1.77328,16.69383 -1.97671,21.39651 -1.40227,19.12998 -4.96833,19.60304 -4.46873,0.5928 -26.99636,7.04058 -29.34971,8.40038 -1.77079,1.02318 -2.19445,1.06341 -3.37893,0.32082 -1.71971,-1.07814 -17.16909,-5.93237 -25.62113,-8.05022 -3.54788,-0.889 -6.78185,-1.94393 -7.18661,-2.34428 -0.40475,-0.40035 -1.19429,-3.62564 -1.75452,-7.16731 -0.56023,-3.54167 -1.50753,-7.68854 -2.10512,-9.21527 -0.62144,-1.58766 -0.95887,-3.62593 -0.78831,-4.76179 0.2593,-1.72686 0.0689,-2.08585 -1.45942,-2.75184 -2.40927,-1.04989 -24.39898,-1.03648 -26.86408,0.0164 l -1.76112,0.75218 0.40651,5.36354 c 0.70948,9.3611 2.88033,28.54309 3.75462,33.17652 1.61148,8.54031 1.68391,8.59126 18.6699,13.13491 6.27482,1.67848 13.06751,3.63109 15.09487,4.33914 2.02735,0.70805 9.07703,2.74915 15.66594,4.53578 13.52794,3.6682 15.38539,3.76704 26.31694,1.40048 z"
       id="path387"
       transform="matrix(0.26458333,0,0,0.26458333,25.678406,83.837082)" />
  </g>
  <g
     inkscape:groupmode="layer"
     id="layer2"
     inkscape:label="Layer 2"
     style="display:inline">
    <path
       style="display:inline;fill:#000000;stroke-width:0.264583"
       d="m 78.126182,129.58741 c -1.54633,-0.52555 -5.35764,-1.5894 -13.02508,-3.63571 -2.07057,-0.5526 -4.09463,-1.13536 -4.49792,-1.29504 -0.40329,-0.15967 -2.14893,-0.6426 -3.8792,-1.07317 -1.73028,-0.43057 -3.31021,-0.9471 -3.51095,-1.14785 -0.26335,-0.26335 -0.54541,-2.66662 -1.01292,-8.63036 -0.35636,-4.54595 -0.71102,-8.36746 -0.78813,-8.49222 -0.0771,-0.12477 -0.55556,-5.447499 -1.06323,-11.828293 -0.50766,-6.3808 -1.0471,-12.37536 -1.19874,-13.32125 -0.15164,-0.94588 -0.57301,-5.52979 -0.93637,-10.18645 -0.36337,-4.65667 -0.78036,-9.7627 -0.92666,-11.34673 -0.14629,-1.58403 -0.19575,-2.95028 -0.10992,-3.03611 0.23944,-0.23944 64.884968,-0.18826 65.124788,0.0516 0.11579,0.11579 0.20837,0.94692 0.20572,1.84695 -0.007,2.27194 -1.12959,15.89669 -1.44325,17.51141 -0.14134,0.7276 -0.67253,6.6212 -1.18044,13.09687 -0.50791,6.47568 -1.05387,12.639443 -1.21324,13.697263 -0.15937,1.05782 -0.62378,6.10532 -1.03202,11.21667 -0.66609,8.33978 -0.79299,9.32331 -1.23672,9.58518 -0.46514,0.27449 -1.72615,0.63082 -11.606964,3.27976 -2.18281,0.58519 -4.30548,1.19508 -4.71703,1.35532 -0.41156,0.16024 -2.197494,0.65112 -3.968754,1.09085 -1.77126,0.43973 -3.45859,0.9079 -3.74963,1.04039 -0.48252,0.21965 -1.19202,0.43122 -2.24896,0.67061 -0.21828,0.0494 -1.11125,-0.15291 -1.98438,-0.44965 z m 5.95313,-15.16816 c 1.38244,-0.37425 2.71446,-0.78985 2.96003,-0.92356 0.24557,-0.1337 1.91245,-0.60915 3.704174,-1.05654 1.79172,-0.44739 3.63285,-0.9868 4.09141,-1.1987 0.45855,-0.2119 0.95655,-0.38527 1.10665,-0.38527 0.3704,0 0.54113,-0.62289 0.72645,-2.65029 0.15072,-1.64895 0.38889,-5.66929 0.39801,-6.71845 0.002,-0.27786 0.13873,-0.75411 0.30293,-1.05834 0.1642,-0.30422 0.3374,-1.505629 0.38488,-2.669785 0.10403,-2.550348 0.22868,-3.924498 0.46827,-5.162128 0.0989,-0.51084 0.0647,-1.23148 -0.0759,-1.60143 -0.16858,-0.4434 -0.16289,-0.83853 0.0167,-1.15945 0.26143,-0.46715 0.44177,-2.39657 0.59486,-6.36449 0.0393,-1.01865 0.16708,-2.56646 0.28395,-3.43959 0.11687,-0.87312 0.20627,-2.39117 0.19866,-3.37344 -0.008,-0.98226 0.0777,-1.78593 0.18946,-1.78593 0.427357,0 0.483387,-0.79706 0.0841,-1.19635 -0.38082,-0.38082 -0.37929,-0.44615 0.0173,-0.73613 0.527354,-0.38561 0.808494,-2.0161 0.442347,-2.56544 -0.231187,-0.34685 -2.747267,-0.39687 -19.963591,-0.39687 -10.8345,0 -19.79828,0.10048 -19.91955,0.2233 -0.30091,0.30475 -0.16947,4.70997 0.17917,6.00471 l 0.2822,1.04803 2.30491,0.0514 c 1.2677,0.0283 8.16273,0.058 15.32236,0.0661 8.30714,0.009 13.112324,0.11048 13.279644,0.27932 0.32054,0.32346 -0.4052,7.80546 -0.79558,8.20209 -0.16583,0.16847 -4.748704,0.26985 -12.616384,0.27908 -16.94063,0.0199 -16.65152,0.009 -16.84311,0.61302 -0.17467,0.55032 0.50889,6.59492 0.776,6.86203 0.093,0.093 6.3641,0.18221 13.93575,0.1982 15.051784,0.0318 14.420234,-0.0386 14.111754,1.57267 -0.12188,0.6366 -0.904954,8.707373 -0.917464,9.455883 -0.002,0.10751 -0.27116,0.18884 -0.59858,0.18073 -0.32742,-0.008 -1.60734,0.27905 -2.84427,0.63814 -1.23693,0.35908 -2.96334,0.85476 -3.83646,1.1015 -0.87313,0.24674 -1.6768,0.58599 -1.78594,0.75389 -0.1474,0.22676 -0.25373,0.2198 -0.41346,-0.027 -0.11826,-0.18276 -0.92193,-0.51169 -1.78593,-0.73095 -0.86401,-0.21927 -1.80905,-0.51519 -2.10009,-0.65762 -0.29104,-0.14242 -1.52592,-0.49273 -2.74418,-0.77846 -1.21824,-0.28574 -2.27071,-0.57525 -2.33883,-0.64337 -0.0681,-0.0681 -0.25219,-1.05575 -0.40906,-2.19474 -0.15687,-1.13899 -0.39028,-2.14114 -0.51869,-2.22699 -0.25465,-0.17025 -0.34214,-0.936789 -0.17824,-1.561615 0.15085,-0.57509 -3.189,-0.94133 -5.80192,-0.63622 -1.94488,0.2271 -2.03017,0.26563 -1.98948,0.898726 0.21198,3.298239 0.90811,9.381359 1.19177,10.414229 0.32395,1.17956 0.45435,1.32426 1.5741,1.74675 0.67149,0.25335 2.57649,0.79274 4.23332,1.19865 1.65684,0.4059 3.13378,0.83203 3.2821,0.94695 0.14832,0.11492 1.74148,0.5701 3.54039,1.01151 1.79888,0.44141 3.30888,0.84075 3.35556,0.88743 0.24652,0.24652 2.92935,-0.1374 5.13754,-0.7352 z m -21.33183,-64.613263 -1.62037,-0.0931 -0.18787,-2.89866 c -0.10333,-1.59426 -0.10392,-4.19395 -10e-4,-5.7771 l 0.18656,-2.87845 2.87037,-0.18604 c 1.57871,-0.10232 4.05412,-0.10211 5.5009,5.3e-4 l 2.63054,0.1865 0.15864,0.84562 c 0.0873,0.46508 0.0856,1.21078 -0.004,1.65709 l -0.1623,0.81148 -3.28026,0.1892 -3.28025,0.1892 v 0.86247 c 0,0.47437 0.0744,1.40532 0.16534,2.06879 l 0.16534,1.20631 3.11534,0.18594 3.11535,0.18594 0.16186,0.80934 c 0.089,0.44514 0.0909,1.18759 0.004,1.6499 l -0.15768,0.84055 -2.16039,0.1682 c -2.128,0.16567 -4.0327,0.15943 -7.22034,-0.0237 z m 13.3588,0.0192 c -1.42636,-0.10839 -1.49792,-0.14911 -1.65665,-0.94274 -0.0913,-0.4562 -0.0918,-1.22458 -10e-4,-1.7075 0.15059,-0.8027 0.24734,-0.87824 1.12748,-0.88034 0.52951,-10e-4 1.58856,-0.0775 2.35345,-0.16935 1.13261,-0.13603 1.33529,-0.23382 1.09209,-0.52686 -0.16436,-0.19791 -0.46649,-0.35984 -0.67153,-0.35984 -0.20503,0 -0.44239,-0.18139 -0.52747,-0.4031 -0.0851,-0.22171 -0.7902,-0.82495 -1.56695,-1.34052 -0.77674,-0.51558 -1.46843,-1.13785 -1.53706,-1.38283 -0.35405,-1.26379 -0.4443,-2.21084 -0.28937,-3.03664 l 0.17181,-0.9158 2.62248,-0.18592 c 1.44236,-0.10226 3.80259,-0.10226 5.24494,0 l 2.62247,0.18592 0.15864,0.84562 c 0.0873,0.46508 0.0852,1.21275 -0.005,1.66148 l -0.16317,0.81587 -2.35336,0.18626 c -2.49077,0.19713 -2.9975,0.56577 -1.71294,1.24611 0.59196,0.31353 1.14297,0.73887 3.40524,2.62864 0.77354,0.64617 0.84032,0.82876 0.84032,2.29746 0,0.87753 -0.0647,1.6602 -0.14374,1.73925 -0.19598,0.19599 -7.16284,0.38526 -9.01109,0.24482 z m 13.22916,-2.7e-4 c -1.42643,-0.10811 -1.49789,-0.14876 -1.65663,-0.94244 -0.0912,-0.4562 -0.0945,-1.21005 -0.007,-1.67521 l 0.15866,-0.84574 2.368314,-0.18527 2.36831,-0.18527 -1.03765,-1.03765 c -0.57071,-0.57075 -1.1162,-1.03769 -1.2122,-1.03769 -0.096,0 -0.69662,-0.38696 -1.334714,-0.8599 -1.28737,-0.95417 -1.65127,-2.00769 -1.33667,-3.86977 l 0.17325,-1.02551 2.602684,-0.18452 c 1.43147,-0.10149 3.85395,-0.1007 5.38329,0.002 l 2.78061,0.18626 0.15824,0.84348 c 0.087,0.46391 0.0848,1.21061 -0.005,1.65934 l -0.16317,0.81587 -2.35336,0.18626 c -2.70504,0.21409 -2.96755,0.52947 -1.31109,1.57514 0.57324,0.36188 1.31738,0.90577 1.65365,1.20866 0.33626,0.30289 0.96658,0.82973 1.40072,1.17075 0.72036,0.56586 0.78934,0.75958 0.78934,2.21661 0,0.87811 -0.0623,1.65887 -0.13845,1.73502 -0.19217,0.19217 -7.46034,0.3878 -9.280974,0.24981 z"
       id="path266" />
  </g>
</svg>
