<?xml version="1.0" encoding="UTF-8" standalone="no"?>
<!-- Created with Inkscape (http://www.inkscape.org/) -->

<svg
   width="158.75mm"
   height="158.75mm"
   viewBox="0 0 158.75 158.75"
   version="1.1"
   id="svg5"
   inkscape:version="1.1.1 (3bf5ae0d25, 2021-09-20)"
   sodipodi:docname="github.svg"
   xmlns:inkscape="http://www.inkscape.org/namespaces/inkscape"
   xmlns:sodipodi="http://sodipodi.sourceforge.net/DTD/sodipodi-0.dtd"
   xmlns="http://www.w3.org/2000/svg"
   xmlns:svg="http://www.w3.org/2000/svg">
  <sodipodi:namedview
     id="namedview7"
     pagecolor="#ffffff"
     bordercolor="#666666"
     borderopacity="1.0"
     inkscape:pageshadow="2"
     inkscape:pageopacity="0.0"
     inkscape:pagecheckerboard="0"
     inkscape:document-units="mm"
     showgrid="false"
     fit-margin-top="0"
     fit-margin-left="0"
     fit-margin-right="0"
     fit-margin-bottom="0"
     inkscape:zoom="0.57549102"
     inkscape:cx="53.867044"
     inkscape:cy="268.4664"
     inkscape:window-width="1600"
     inkscape:window-height="871"
     inkscape:window-x="-9"
     inkscape:window-y="-9"
     inkscape:window-maximized="1"
     inkscape:current-layer="layer1" />
  <defs
     id="defs2" />
  <g
     inkscape:label="Layer 1"
     inkscape:groupmode="layer"
     id="layer1"
     transform="translate(-25.678406,-83.837082)">
    <path
       style="fill:#000000;stroke-width:0.264583"
       d="m 90.503464,215.92144 c -17.129704,-4.62526 -30.827599,-16.89037 -37.409265,-33.4963 -3.091303,-7.79955 -4.464758,-16.87328 -3.734606,-24.67267 0.419621,-4.48233 0.675886,-6.03959 1.600745,-9.7274 5.015004,-19.99693 20.554213,-35.53731 40.580775,-40.58382 7.943138,-2.00159 15.144677,-2.32873 22.907147,-1.04057 22.17333,3.67961 39.74824,19.85181 45.23473,41.62439 1.30503,5.17888 1.55189,7.25588 1.57479,13.24986 0.0192,5.02528 -0.067,6.67611 -0.48351,9.26041 -0.0586,0.3638 -0.18211,1.19724 -0.27438,1.85209 -0.38808,2.75415 -1.8061,7.34387 -3.51502,11.37708 -5.90875,13.94516 -17.0329,24.78252 -31.20111,30.39671 -2.43107,0.96332 -6.93421,2.29233 -7.09634,2.09435 -0.0359,-0.0438 -0.1797,-4.42538 -0.31965,-9.73689 -0.21009,-7.97385 -0.33024,-9.83228 -0.68927,-10.6611 -0.32693,-0.75474 -0.3549,-1.03287 -0.11274,-1.12092 0.17715,-0.0644 1.71927,-0.46727 3.42695,-0.89524 8.95972,-2.24545 15.65778,-7.30528 19.14898,-14.46548 3.71012,-7.6092 2.53418,-19.19965 -2.63685,-25.98963 -1.98691,-2.60898 -1.8683,-2.32393 -1.38805,-3.33599 0.23739,-0.50027 0.60262,-2.04867 0.81162,-3.4409 0.33389,-2.22424 0.33172,-2.80786 -0.0179,-4.81094 -0.43176,-2.47364 -0.96645,-4.05711 -1.75467,-5.19649 -0.8499,-1.22854 -1.24276,-1.30277 -3.98035,-0.75207 -4.27261,0.8595 -7.38363,2.38646 -10.40596,5.10749 -1.67451,1.50758 -1.67963,1.50987 -2.55807,1.14283 -1.28933,-0.53872 -4.87165,-1.13469 -8.79026,-1.46241 -2.79839,-0.23402 -4.16018,-0.2113 -7.30501,0.12187 -3.325399,0.35231 -6.759017,1.01574 -8.180168,1.58054 -0.258842,0.10287 -1.296416,-0.55207 -2.888766,-1.82344 -2.515976,-2.00883 -5.778378,-3.78899 -7.952105,-4.33916 -2.296041,-0.58113 -4.54565,-0.82495 -5.061926,-0.54865 -0.794803,0.42537 -2.600534,4.49486 -2.382838,5.3701 0.03138,0.12615 -0.07497,0.62941 -0.236339,1.11835 -0.431403,1.30716 0.130911,5.6486 0.978371,7.55367 l 0.664181,1.49305 -1.720689,2.25517 c -2.433052,3.18881 -4.307678,7.45815 -4.833725,11.0085 -1.529636,10.32372 1.566473,18.21388 9.458182,24.10333 3.324585,2.48109 9.234686,5.0129 13.321241,5.70666 1.893636,0.32148 1.993115,0.4433 1.544979,1.89204 -0.456766,1.47665 -0.629258,2.42465 -0.724276,3.98054 -0.03803,0.62279 -0.19168,1.25488 -0.341434,1.40463 -0.149754,0.14976 -1.211823,0.43774 -2.360149,0.63996 -1.915367,0.33729 -2.303587,0.32414 -4.698807,-0.15924 -4.209449,-0.84951 -6.097363,-1.99098 -8.111326,-4.90428 -2.107676,-3.04886 -4.185087,-4.58613 -7.137112,-5.28141 -1.281887,-0.30191 -1.565505,-0.28937 -2.38125,0.10534 -1.340985,0.64884 -1.200465,1.26217 0.626364,2.7339 2.025513,1.63179 3.285803,3.34352 4.909278,6.6678 2.287683,4.68434 5.764472,7.48284 10.628828,8.55525 2.220609,0.48956 5.436593,0.55171 6.940164,0.13412 1.475036,-0.40966 1.6856,-0.2252 1.886717,1.6528 0.178793,1.66956 -0.04646,4.85585 -0.3538,5.00458 -0.08997,0.0435 -1.532811,-0.29054 -3.206301,-0.74241 z"
       id="path51" />
  </g>
</svg>
