<?xml version="1.0" encoding="UTF-8" standalone="no"?>
<!-- Created with Inkscape (http://www.inkscape.org/) -->

<svg
   width="158.75mm"
   height="158.75mm"
   viewBox="0 0 158.75 158.75"
   version="1.1"
   id="svg2495"
   inkscape:version="1.1.1 (3bf5ae0d25, 2021-09-20)"
   sodipodi:docname="gmail.svg"
   xmlns:inkscape="http://www.inkscape.org/namespaces/inkscape"
   xmlns:sodipodi="http://sodipodi.sourceforge.net/DTD/sodipodi-0.dtd"
   xmlns="http://www.w3.org/2000/svg"
   xmlns:svg="http://www.w3.org/2000/svg">
  <sodipodi:namedview
     id="namedview2497"
     pagecolor="#ffffff"
     bordercolor="#666666"
     borderopacity="1.0"
     inkscape:pageshadow="2"
     inkscape:pageopacity="0.0"
     inkscape:pagecheckerboard="0"
     inkscape:document-units="mm"
     showgrid="false"
     inkscape:zoom="0.81386721"
     inkscape:cx="192.90616"
     inkscape:cy="295.50275"
     inkscape:window-width="955"
     inkscape:window-height="861"
     inkscape:window-x="635"
     inkscape:window-y="0"
     inkscape:window-maximized="0"
     inkscape:current-layer="layer3" />
  <defs
     id="defs2492" />
  <g
     inkscape:label="Layer 1"
     inkscape:groupmode="layer"
     id="layer1"
     transform="translate(-24.988777,-33.26432)"
     style="display:inline" />
  <g
     inkscape:groupmode="layer"
     id="layer3"
     inkscape:label="clean"
     style="display:inline">
    <path
       style="display:inline;fill:#f7fcff;fill-opacity:1;stroke-width:0.264583"
       d="m 100.66805,168.85004 c -0.50932,-0.0595 -2.044853,-0.23861 -3.412291,-0.39801 -3.918429,-0.45675 -9.998266,-2.08055 -14.211287,-3.79554 l -1.087123,-0.44254 -0.190791,-6.32707 c -0.247869,-8.21993 0.05268,-18.59714 0.533268,-18.41272 0.187285,0.0719 1.256112,0.82212 2.375173,1.66724 1.11906,0.84511 2.288032,1.70943 2.59771,1.92071 0.309679,0.21127 1.277427,0.92776 2.150552,1.59219 0.873125,0.66443 1.885157,1.41825 2.248959,1.67516 1.609881,1.13688 2.568371,1.85591 3.435106,2.5769 2.71921,2.26197 9.905014,7.36129 10.159924,7.20988 0.16258,-0.0966 0.71231,-0.50664 1.22164,-0.9113 0.50932,-0.40465 3.00963,-2.28235 5.55625,-4.17265 2.54661,-1.89031 4.92786,-3.6705 5.29166,-3.95598 3.08426,-2.42025 10.29004,-7.70563 10.50542,-7.70563 0.40631,0 0.68875,11.1459 0.46298,18.27024 l -0.1933,6.09941 -1.22036,0.61748 c -2.96061,1.498 -9.10355,3.28668 -13.73988,4.00074 -2.50493,0.38579 -10.6452,0.70628 -12.48361,0.49149 z M 60.866097,147.94943 C 54.978964,140.72236 50.694712,130.91968 49.191759,121.2377 48.570627,117.23639 48.568653,108.8072 49.187959,104.85158 51.78633,88.25432 60.9604,74.16748 74.871215,65.414775 c 6.491375,-4.084381 15.412471,-7.269804 22.550734,-8.052106 1.421577,-0.155795 3.596721,-0.392206 4.833641,-0.525358 2.2596,-0.243241 8.35038,0.162695 12.03854,0.802342 8.97063,1.555794 18.15042,5.733758 25.5323,11.62042 2.79877,2.231877 7.31504,6.86725 9.36485,9.611828 5.74512,7.692369 9.40376,16.419166 10.8918,25.979679 0.61892,3.97648 0.62642,12.26972 0.0147,16.26285 -0.0557,0.3638 -0.17883,1.19724 -0.27357,1.85208 -0.80381,5.5564 -4.06015,13.91051 -7.65256,19.63254 -1.65936,2.64307 -4.36207,6.29663 -4.65791,6.29663 -0.11182,0 -0.29131,-7.93718 -0.39888,-17.63819 -0.13333,-12.02403 -0.2899,-17.85596 -0.49191,-18.32239 -0.78093,-1.80316 -2.85266,-3.6107 -5.1969,-4.53418 -1.53093,-0.60308 -4.15773,-0.45813 -5.83297,0.32188 -0.80036,0.37266 -4.59498,3.04534 -8.43247,5.93929 -3.8375,2.89394 -7.23078,5.43847 -7.54063,5.65451 -0.51423,0.35854 -2.42845,1.78243 -3.73836,2.78077 -0.29104,0.22182 -1.71979,1.2891 -3.175,2.37173 -1.4552,1.08263 -2.76489,2.06606 -2.91041,2.1854 -0.97532,0.79986 -3.60241,2.71807 -4.05231,2.95885 -0.90651,0.48515 -1.197,0.36175 -3.83132,-1.62757 -5.966807,-4.50585 -8.260864,-6.22121 -9.821487,-7.3439 -0.911596,-0.65579 -2.077913,-1.54876 -2.591819,-1.98438 -0.513908,-0.43562 -1.85937,-1.44687 -2.989919,-2.24724 -1.130548,-0.80036 -2.507326,-1.81239 -3.059509,-2.24896 -0.552183,-0.43656 -1.815301,-1.38743 -2.80693,-2.11305 -0.991629,-0.72561 -2.428754,-1.81863 -3.193614,-2.42893 -2.708785,-2.1614 -5.284583,-2.96773 -7.787806,-2.4379 -1.714135,0.36282 -2.654747,0.81923 -4.099378,1.98914 -1.167857,0.94577 -2.691349,3.32512 -2.904461,4.53612 -0.06961,0.39556 -0.151931,8.30344 -0.18293,17.57306 -0.031,9.26961 -0.129225,16.92671 -0.218281,17.01577 -0.08906,0.089 -0.714701,-0.51668 -1.390322,-1.34608 z"
       id="path5577"
       transform="translate(-24.988777,-33.264319)" />
  </g>
</svg>
