<?xml version="1.0" encoding="UTF-8" standalone="no"?>
<!-- Created with Inkscape (http://www.inkscape.org/) -->

<svg
   width="158.75mm"
   height="158.75mm"
   viewBox="0 0 158.75 158.75"
   version="1.1"
   id="svg2495"
   inkscape:version="1.1.1 (3bf5ae0d25, 2021-09-20)"
   sodipodi:docname="instagram.svg"
   xmlns:inkscape="http://www.inkscape.org/namespaces/inkscape"
   xmlns:sodipodi="http://sodipodi.sourceforge.net/DTD/sodipodi-0.dtd"
   xmlns="http://www.w3.org/2000/svg"
   xmlns:svg="http://www.w3.org/2000/svg">
  <sodipodi:namedview
     id="namedview2497"
     pagecolor="#ffffff"
     bordercolor="#666666"
     borderopacity="1.0"
     inkscape:pageshadow="2"
     inkscape:pageopacity="0.0"
     inkscape:pagecheckerboard="0"
     inkscape:document-units="mm"
     showgrid="false"
     inkscape:zoom="0.81386721"
     inkscape:cx="192.90616"
     inkscape:cy="295.50275"
     inkscape:window-width="955"
     inkscape:window-height="861"
     inkscape:window-x="628"
     inkscape:window-y="-24"
     inkscape:window-maximized="0"
     inkscape:current-layer="layer3" />
  <defs
     id="defs2492" />
  <g
     inkscape:label="Layer 1"
     inkscape:groupmode="layer"
     id="layer1"
     transform="translate(-24.988777,-33.26432)"
     style="display:inline" />
  <g
     inkscape:groupmode="layer"
     id="layer3"
     inkscape:label="clean"
     style="display:inline">
    <path
       style="display:inline;fill:#f7fcff;fill-opacity:1;stroke-width:0.264583"
       d="m 98.094002,169.42437 c -0.582084,-0.0627 -2.427552,-0.35325 -4.101042,-0.64572 -19.609096,-3.42701 -35.404576,-16.24644 -42.700931,-34.65558 -2.915344,-7.35559 -4.421113,-16.6984 -3.844441,-23.85352 0.814088,-10.10088 3.908026,-19.53827 8.915431,-27.194608 9.901137,-15.138866 25.318603,-24.14447 43.897261,-25.641137 7.23367,-0.582733 16.4576,0.900887 23.87237,3.839748 18.14741,7.192759 30.91439,22.736461 34.5703,42.089067 0.84847,4.49141 1.15146,11.92046 0.66178,16.22664 -1.91665,16.85488 -11.17926,31.94474 -25.14232,40.95974 -6.71252,4.33382 -13.18416,6.85027 -21.57632,8.3898 -2.32126,0.42583 -12.08197,0.75152 -14.552088,0.48557 z m 24.870838,-17.28089 c 4.77979,-0.72762 6.05058,-1.0699 8.70733,-2.34535 2.43323,-1.16812 3.02335,-1.5992 5.28413,-3.85998 1.39974,-1.39974 2.54499,-2.70354 2.54499,-2.89732 0,-0.19378 0.29751,-0.69827 0.66114,-1.12109 0.36362,-0.42282 0.66128,-0.86062 0.66146,-0.97289 1.7e-4,-0.11227 0.40112,-1.24337 0.89099,-2.51354 1.70068,-4.40961 1.77032,-5.48625 1.67427,-25.88372 -0.0742,-15.749734 -0.14527,-18.499824 -0.52266,-20.214231 -0.5592,-2.540336 -0.89884,-3.678669 -1.21155,-4.06054 -0.1374,-0.167796 -0.38317,-0.803859 -0.54614,-1.413473 -0.35167,-1.315421 -2.65168,-4.809767 -3.86983,-5.879311 -0.47368,-0.415896 -0.99606,-1.0081 -1.16085,-1.316008 -0.16479,-0.307909 -0.46488,-0.559835 -0.66688,-0.559835 -0.20199,0 -0.73075,-0.305853 -1.17501,-0.679675 -1.07168,-0.901761 -4.10581,-2.362306 -6.02438,-2.899971 -4.94625,-1.386147 -3.33435,-1.299064 -23.90014,-1.291166 l -19.182292,0.0074 -3.085819,0.833673 c -3.90561,1.055148 -6.008169,2.050455 -8.460669,4.005096 -2.15782,1.719779 -3.202985,2.807576 -4.218247,4.3903 -2.075899,3.23619 -2.434251,4.053578 -3.24449,7.400579 l -0.834525,3.447325 v 19.182297 19.18229 l 0.709854,2.93347 c 0.439962,1.81817 1.138838,3.77978 1.838161,5.15938 1.080262,2.1311 3.534682,5.40031 4.433501,5.90527 0.234749,0.13188 0.819502,0.6379 1.299451,1.12448 0.479946,0.48658 1.029438,0.88469 1.221089,0.88469 0.191651,0 0.636915,0.2269 0.989478,0.50423 1.443215,1.13523 5.950646,2.47604 10.145966,3.0181 1.711524,0.22113 35.548962,0.15677 37.041672,-0.0705 z m -33.072922,-7.67314 c -6.833092,-0.2726 -9.667655,-1.19324 -12.568761,-4.08222 -1.810337,-1.80277 -2.372712,-2.71071 -3.313576,-5.34967 l -0.744979,-2.08955 -0.188129,-17.33021 c -0.103471,-9.53161 -0.136734,-17.417559 -0.07392,-17.524321 0.06282,-0.106762 0.172414,-1.102233 0.243552,-2.212154 0.156583,-2.443031 1.894255,-7.78019 2.533076,-7.78019 0.122161,0 0.222112,-0.128463 0.222112,-0.285472 0,-0.301651 2.219937,-2.624944 2.508168,-2.624944 0.09278,0 0.608198,-0.339376 1.145368,-0.754171 0.942121,-0.727491 3.515993,-1.559007 6.687511,-2.160474 0.855326,-0.162211 7.938029,-0.262165 18.0881,-0.25527 17.33283,0.01177 17.51593,0.02164 21.79919,1.173906 1.97127,0.530307 4.98389,2.592536 5.91727,4.050543 1.97526,3.085523 2.11566,3.362979 2.33839,4.620932 0.0188,0.106246 0.20319,0.880153 0.40974,1.719792 1.00952,4.103928 1.18388,32.792423 0.23359,38.435993 -0.48568,2.88438 -1.09061,4.9741 -1.61445,5.57708 -0.19958,0.22974 -0.36288,0.53221 -0.36288,0.67215 0,0.63557 -3.4166,3.64267 -5.07579,4.46743 -3.28786,1.63433 -4.36009,1.73426 -19.66275,1.8325 -7.56708,0.0486 -15.901457,0.003 -18.520832,-0.10168 z m 17.197922,-10.9635 c 3.05342,-0.57224 4.40959,-0.9726 6.2177,-1.83554 0.94589,-0.45143 1.77933,-0.89071 1.85209,-0.97618 0.0728,-0.0855 0.56645,-0.4191 1.0971,-0.74141 0.53065,-0.3223 1.15255,-0.87253 1.38201,-1.22274 0.22946,-0.3502 0.62874,-0.70912 0.88728,-0.7976 0.25853,-0.0885 0.88678,-0.70154 1.39611,-1.36238 0.50932,-0.66083 1.19378,-1.5202 1.52103,-1.90972 0.32724,-0.38951 0.59513,-0.86546 0.59531,-1.05766 1.8e-4,-0.1922 0.35435,-1.02563 0.78706,-1.85208 1.34587,-2.57056 1.8591,-4.80598 1.8591,-8.09749 0,-6.51351 -3.05552,-12.82483 -8.01878,-16.56318 -1.00147,-0.754308 -3.0321,-1.885418 -4.5739,-2.54777 -2.2948,-0.985843 -3.20849,-1.232419 -5.29999,-1.430296 -3.93074,-0.371885 -7.375439,0.114724 -10.285458,1.452957 -2.002179,0.920742 -2.69715,1.256541 -3.383471,1.634845 -0.965324,0.53209 -5.29463,4.800334 -5.77111,5.689714 -2.895137,5.40396 -3.258288,6.67841 -3.271015,11.47942 -0.0076,2.86058 0.10069,4.06571 0.47543,5.29167 0.823846,2.69522 1.23534,3.66307 2.043218,4.80575 0.428353,0.60588 0.778823,1.18893 0.778823,1.29567 0,0.23095 1.730023,2.40683 2.511689,3.159 2.23995,2.15542 5.72937,4.14 8.600811,4.89163 4.135403,1.0825 5.804543,1.21709 8.598963,0.69339 z m -4.63021,-7.83066 c -3.87476,-0.45824 -7.584496,-3.31354 -9.746258,-7.50149 -0.657165,-1.27312 -0.704787,-1.59779 -0.704787,-4.80496 0,-3.27692 0.03604,-3.5084 0.762172,-4.89479 0.419195,-0.80036 1.103805,-1.88906 1.521354,-2.41932 0.41755,-0.53027 0.759182,-1.09581 0.759182,-1.25677 0,-0.16096 0.118788,-0.29266 0.26397,-0.29266 0.145182,0 0.697886,-0.40928 1.22823,-0.90952 0.530344,-0.50023 1.334294,-1.05011 1.786551,-1.22194 0.452261,-0.17184 1.358072,-0.5522 2.012916,-0.84525 0.94923,-0.42479 1.75388,-0.53269 3.96875,-0.5322 2.43502,5.3e-4 2.99053,0.0904 4.49792,0.72719 3.5289,1.49089 6.16107,4.34215 7.29633,7.90363 0.37765,1.18477 0.69547,2.82289 0.70625,3.64025 0.023,1.7443 -1.18018,5.83202 -2.02303,6.87304 -0.30557,0.37744 -0.90024,1.12664 -1.32146,1.6649 -2.19517,2.80508 -6.68003,4.38173 -11.00809,3.86989 z m 23.74279,-28.058923 c 2.35847,-0.505801 3.77387,-2.337948 3.77387,-4.885023 0,-2.066666 -1.27004,-4.365625 -2.41175,-4.365625 -0.25709,0 -0.53829,-0.114655 -0.6249,-0.254786 -0.0866,-0.140134 -0.58207,-0.372028 -1.10104,-0.515319 -0.75815,-0.209338 -1.23719,-0.152558 -2.43783,0.288949 -1.70991,0.628783 -2.30264,1.079622 -2.8928,2.200323 -0.51897,0.985501 -0.56517,3.932386 -0.08,5.103646 0.37228,0.898752 1.6623,1.84559 3.19321,2.343716 1.23246,0.401016 1.12061,0.397372 2.58126,0.08412 z"
       id="path7150"
       transform="translate(-24.988777,-33.264319)" />
  </g>
</svg>
