<?xml version="1.0" encoding="UTF-8" standalone="no"?>
<!-- Created with Inkscape (http://www.inkscape.org/) -->

<svg
   width="158.75mm"
   height="158.75mm"
   viewBox="0 0 158.75 158.75"
   version="1.1"
   id="svg2495"
   inkscape:version="1.1.1 (3bf5ae0d25, 2021-09-20)"
   sodipodi:docname="js.svg"
   xmlns:inkscape="http://www.inkscape.org/namespaces/inkscape"
   xmlns:sodipodi="http://sodipodi.sourceforge.net/DTD/sodipodi-0.dtd"
   xmlns="http://www.w3.org/2000/svg"
   xmlns:svg="http://www.w3.org/2000/svg">
  <sodipodi:namedview
     id="namedview2497"
     pagecolor="#ffffff"
     bordercolor="#666666"
     borderopacity="1.0"
     inkscape:pageshadow="2"
     inkscape:pageopacity="0.0"
     inkscape:pagecheckerboard="0"
     inkscape:document-units="mm"
     showgrid="false"
     inkscape:zoom="0.81386721"
     inkscape:cx="192.90616"
     inkscape:cy="197.20662"
     inkscape:window-width="955"
     inkscape:window-height="861"
     inkscape:window-x="635"
     inkscape:window-y="0"
     inkscape:window-maximized="0"
     inkscape:current-layer="layer3" />
  <defs
     id="defs2492" />
  <g
     inkscape:label="Layer 1"
     inkscape:groupmode="layer"
     id="layer1"
     transform="translate(-24.988777,-33.26432)"
     style="display:inline" />
  <g
     inkscape:groupmode="layer"
     id="layer3"
     inkscape:label="clean"
     style="display:inline">
    <path
       style="display:inline;fill:#f7fcff;fill-opacity:1;stroke-width:0.264583"
       d="m 103.06509,162.47127 c -0.67944,-0.2657 -2.81734,-0.86976 -4.750897,-1.34236 -1.933551,-0.4726 -3.699362,-0.96326 -3.924025,-1.09036 -0.224665,-0.1271 -2.11192,-0.6518 -4.193902,-1.166 -2.081983,-0.5142 -3.986983,-1.04476 -4.233334,-1.17901 -0.24635,-0.13425 -1.936191,-0.61436 -3.755202,-1.06692 -1.81901,-0.45255 -3.44688,-0.96455 -3.617486,-1.13777 -0.190482,-0.1934 -0.571662,-3.48042 -0.987682,-8.51703 -0.372618,-4.51115 -0.790964,-9.15459 -0.929656,-10.31875 -0.138694,-1.16417 -0.378441,-3.72401 -0.532773,-5.68854 -1.136012,-14.46058 -1.362747,-17.11123 -1.493731,-17.4625 -0.0814,-0.21829 -0.262067,-1.7661 -0.401492,-3.43959 -0.717783,-8.6153 -1.341697,-16.546553 -1.479865,-18.812127 L 72.610129,88.710062 88.98445,88.571976 c 9.005877,-0.07595 23.65605,-0.07635 32.55594,-7.94e-4 l 16.18161,0.1372 0.10852,1.085932 c 0.0597,0.597262 -0.0427,2.514682 -0.22749,4.260932 -0.18481,1.74625 -0.46423,4.960937 -0.62093,7.143754 -0.1567,2.18281 -0.40535,4.86171 -0.55254,5.95312 -0.41643,3.0877 -0.77133,7.20678 -2.09729,24.34167 -0.15202,1.96453 -0.38244,3.92906 -0.51204,4.36562 -0.12961,0.43656 -0.30389,1.92485 -0.38731,3.30729 -0.46911,7.77465 -1.26227,16.03172 -1.56948,16.33894 -0.18429,0.18428 -1.87744,0.7431 -3.76257,1.24182 -7.80205,2.06406 -12.3322,3.31552 -12.59923,3.48056 -0.15597,0.0964 -1.84707,0.56914 -3.75801,1.05054 -1.91094,0.4814 -3.95069,1.05576 -4.53277,1.27635 -1.39906,0.53019 -2.64029,0.50518 -4.14577,-0.0835 z m 6.39472,-14.94952 c 1.67349,-0.39575 3.3999,-0.87931 3.83646,-1.07459 0.875,-0.3914 2.15466,-0.74754 4.36563,-1.21499 0.80036,-0.16922 1.81239,-0.46401 2.24896,-0.6551 0.43656,-0.19109 1.03187,-0.38662 1.32291,-0.43453 0.5975,-0.0984 0.66569,-0.52913 1.18357,-7.47636 0.16218,-2.1756 0.40336,-4.08635 0.53595,-4.24612 0.13259,-0.15976 0.2269,-0.76097 0.20957,-1.33603 -0.0173,-0.57505 0.10005,-2.2957 0.26083,-3.82367 0.16078,-1.52797 0.42184,-4.56406 0.58015,-6.74688 0.15831,-2.18281 0.40348,-5.06312 0.54482,-6.40069 0.14134,-1.33756 0.25699,-3.12945 0.25699,-3.98197 0,-0.85253 0.12286,-1.67291 0.27302,-1.82307 0.15017,-0.15017 0.299,-1.51343 0.33073,-3.02948 l 0.0577,-2.75645 -12.69432,-0.0484 c -7.98716,-0.0304 -12.810317,0.0479 -13.007169,0.21128 -0.206148,0.17109 -0.371348,0.16503 -0.484326,-0.0178 -0.225385,-0.36468 -1.382529,-0.35734 -1.609687,0.0102 -0.128011,0.20713 -0.258279,0.20713 -0.465408,0 -0.366794,-0.3668 -1.420527,-0.37334 -1.644951,-0.0102 -0.107741,0.17433 -0.285618,0.18582 -0.478637,0.0309 -0.168944,-0.13559 -2.50983,-0.23067 -5.201965,-0.21128 l -4.894792,0.0353 0.09663,3.83646 c 0.05314,2.11005 0.149468,3.92575 0.214053,4.03489 0.06458,0.10914 7.194616,0.19844 15.844512,0.19844 14.80693,0 15.72631,0.0271 15.71363,0.46302 -0.007,0.25466 -0.12357,1.77271 -0.25814,3.37344 -0.13456,1.60073 -0.36803,4.50725 -0.51882,6.45894 -0.15078,1.95169 -0.37661,3.6781 -0.50184,3.83646 -0.12523,0.15836 -0.29755,1.35949 -0.38295,2.66918 -0.37578,5.76338 -0.71938,9.39338 -0.94541,9.98788 -0.20721,0.54499 -0.57498,0.71202 -2.44961,1.11251 -1.21319,0.25918 -2.32487,0.56565 -2.47039,0.68104 -0.27737,0.21994 -3.51167,1.12596 -3.96875,1.11176 -0.81943,-0.0255 -4.56113,-0.97011 -5.0177,-1.2668 -0.2962,-0.19248 -1.193391,-0.43379 -1.993755,-0.53625 -2.523369,-0.32304 -2.612983,-0.48508 -2.651191,-4.79399 -0.01895,-2.13531 -0.417283,-2.33297 -4.642512,-2.30366 l -3.421922,0.0237 0.06823,3.537 c 0.03753,1.94534 0.186357,3.65511 0.330729,3.79948 0.144373,0.14438 0.262496,1.19901 0.262496,2.34364 0,2.24728 0.280236,3.10469 1.014725,3.10469 0.256818,0 0.580051,0.10368 0.718296,0.2304 0.138245,0.12672 1.620573,0.54674 3.294062,0.93339 1.67349,0.38665 3.399896,0.86889 3.836459,1.07164 0.436562,0.20275 1.984375,0.63506 3.439583,0.96069 1.45521,0.32562 2.82443,0.68638 3.04271,0.80168 0.62302,0.32909 2.52006,0.11082 5.82083,-0.66974 z M 94.604121,82.880227 c -1.469872,-0.09312 -1.497028,-0.109553 -1.665634,-1.008306 -0.09427,-0.502504 -0.09647,-1.313071 -0.0049,-1.801259 l 0.166518,-0.887614 2.94013,-0.178572 c 1.617069,-0.09821 2.969736,-0.20818 3.005926,-0.244367 0.03619,-0.03619 0.149235,-1.751531 0.251216,-3.811871 l 0.185417,-3.746071 1.019746,-0.172286 c 0.56087,-0.09476 1.48121,-0.09432 2.0452,0.0011 l 1.02544,0.173247 0.18749,2.892716 c 0.10312,1.590995 0.10366,4.185856 10e-4,5.766361 l -0.18625,2.873642 -2.15115,0.167481 c -2.128954,0.165751 -3.924027,0.159417 -6.820397,-0.02405 z m 13.361549,-5.29e-4 c -1.6028,-0.09188 -1.6288,-0.105815 -1.78892,-0.959355 -0.0894,-0.476369 -0.0867,-1.244913 0.006,-1.707873 0.15644,-0.782179 0.24559,-0.841912 1.25976,-0.844047 0.60027,-0.0013 1.69818,-0.07521 2.4398,-0.16433 l 1.34839,-0.162028 -1.1134,-1.026298 c -0.61238,-0.564409 -1.22494,-1.026242 -1.36125,-1.026242 -0.13631,0 -0.73292,-0.466111 -1.3258,-1.035801 -1.16806,-1.122376 -1.55447,-2.290075 -1.26624,-3.826465 l 0.16762,-0.893514 2.879,-0.186595 c 1.58345,-0.102629 4.06274,-0.102671 5.50954,-1e-4 l 2.63055,0.186497 0.15864,0.845619 c 0.0872,0.465087 0.0852,1.212754 -0.005,1.661482 l -0.16317,0.815867 -2.35519,0.186404 c -1.29535,0.102524 -2.41484,0.282924 -2.48774,0.400892 -0.0729,0.117967 0.2347,0.492214 0.68359,0.831662 0.44888,0.339447 1.07491,0.866338 1.39116,1.170866 0.31626,0.30453 1.06684,0.876509 1.66796,1.271066 0.87787,0.576201 1.12495,0.917506 1.25557,1.734349 0.0894,0.559334 0.0921,1.369581 0.006,1.800548 -0.1547,0.773538 -0.18435,0.785728 -2.3139,0.951523 -2.12555,0.165481 -4.02691,0.159145 -7.22321,-0.02408 z"
       id="path6212"
       transform="translate(-24.988777,-33.264319)" />
  </g>
</svg>
