<?xml version="1.0" encoding="UTF-8" standalone="no"?>
<!-- Created with Inkscape (http://www.inkscape.org/) -->

<svg
   width="158.75mm"
   height="158.75mm"
   viewBox="0 0 158.75 158.75"
   version="1.1"
   id="svg2495"
   inkscape:version="1.1.1 (3bf5ae0d25, 2021-09-20)"
   sodipodi:docname="linkedin.svg"
   xmlns:inkscape="http://www.inkscape.org/namespaces/inkscape"
   xmlns:sodipodi="http://sodipodi.sourceforge.net/DTD/sodipodi-0.dtd"
   xmlns="http://www.w3.org/2000/svg"
   xmlns:svg="http://www.w3.org/2000/svg">
  <sodipodi:namedview
     id="namedview2497"
     pagecolor="#ffffff"
     bordercolor="#666666"
     borderopacity="1.0"
     inkscape:pageshadow="2"
     inkscape:pageopacity="0.0"
     inkscape:pagecheckerboard="0"
     inkscape:document-units="mm"
     showgrid="false"
     inkscape:zoom="0.81386721"
     inkscape:cx="192.90616"
     inkscape:cy="295.50275"
     inkscape:window-width="955"
     inkscape:window-height="861"
     inkscape:window-x="635"
     inkscape:window-y="0"
     inkscape:window-maximized="0"
     inkscape:current-layer="layer3" />
  <defs
     id="defs2492" />
  <g
     inkscape:label="Layer 1"
     inkscape:groupmode="layer"
     id="layer1"
     transform="translate(-24.988777,-33.26432)"
     style="display:inline" />
  <g
     inkscape:groupmode="layer"
     id="layer3"
     inkscape:label="clean"
     style="display:inline">
    <path
       style="display:inline;fill:#f7fcff;fill-opacity:1;stroke-width:0.264583"
       d="m 96.476302,169.3099 c -2.651501,-0.41336 -5.860547,-1.19635 -8.873006,-2.16496 l -2.145059,-0.68971 -0.194453,-24.10099 c -0.106947,-13.25554 -0.217202,-24.1248 -0.245007,-24.1539 -0.209658,-0.21944 -9.033486,-0.37855 -12.344839,-0.2226 l -4.109831,0.19356 0.0049,18.87439 c 0.0027,10.38091 -0.08638,18.96565 -0.197932,19.07721 -0.111557,0.11155 -1.282377,-0.86254 -2.601828,-2.16466 -8.741712,-8.62689 -14.37033,-19.62109 -16.252389,-31.74526 -0.621132,-4.00131 -0.623106,-12.4305 -0.0038,-16.38612 2.598371,-16.597256 11.772441,-30.684096 25.683256,-39.436801 6.491375,-4.084381 15.412471,-7.269804 22.550734,-8.052106 1.421577,-0.155795 3.596712,-0.392206 4.833642,-0.525358 2.25959,-0.243241 8.35037,0.162695 12.03854,0.802342 8.97063,1.555794 18.15042,5.733758 25.53229,11.62042 2.79878,2.231877 7.31504,6.86725 9.36486,9.611828 5.74511,7.692369 9.40376,16.419166 10.8918,25.979675 0.61892,3.97648 0.62642,12.26973 0.0147,16.26285 -0.0557,0.36381 -0.17884,1.19724 -0.27357,1.85209 -0.30203,2.08776 -1.44805,6.29588 -2.42484,8.90382 -1.13478,3.02976 -3.12236,7.36831 -3.47559,7.58662 -0.1534,0.0948 -0.36775,-1.5366 -0.5429,-4.132 -0.40732,-6.03595 -1.35824,-8.88649 -4.09468,-12.27451 -2.4513,-3.03501 -6.13407,-5.36531 -9.98896,-6.32059 -2.67057,-0.6618 -7.89532,-0.6638 -10.31812,-0.004 -4.0836,1.11218 -7.18353,2.9351 -10.44023,6.1394 -1.09188,1.07431 -2.03044,1.9533 -2.08568,1.9533 -0.0553,0 -0.18657,-1.6966 -0.29183,-3.77022 -0.10526,-2.07362 -0.21523,-3.79407 -0.24439,-3.82323 -0.22259,-0.22259 -9.05848,-0.37758 -12.44198,-0.21825 l -4.204521,0.19799 0.193487,12.90195 c 0.106416,7.09608 0.105992,18.69134 -0.0011,25.76727 -0.174847,11.56958 -0.237207,12.86274 -0.61917,12.83969 -0.233609,-0.0141 -1.445289,-0.18473 -2.692628,-0.37918 z M 80.84959,108.78789 c 1.631296,-0.809 3.542771,-2.7339 4.417885,-4.44891 0.632846,-1.24023 0.732203,-1.74982 0.743392,-3.81281 0.01101,-2.03026 -0.08971,-2.603403 -0.683368,-3.888447 -0.853917,-1.848422 -2.60799,-3.647911 -4.48568,-4.601819 -1.920378,-0.975595 -5.248061,-1.05538 -7.187936,-0.172336 -2.582322,1.175491 -4.223747,2.950877 -5.219811,5.645822 -0.438581,1.186622 -0.498678,1.788644 -0.35397,3.54595 0.250619,3.04341 1.391105,5.10436 3.805391,6.87661 2.433471,1.78633 6.336525,2.15901 8.964097,0.85594 z m 35.63561,51.96439 c -0.10587,-4.34726 -0.10756,-11.46124 -0.004,-15.80886 l 0.18875,-7.90475 1.12662,-1.5875 c 4.34141,-6.11742 9.87673,-8.54754 14.68175,-6.44559 1.68443,0.73685 2.598,1.68987 3.51566,3.66747 0.78251,1.68634 0.80289,1.83814 1.04794,7.8052 0.13745,3.34698 0.16508,9.10469 0.0614,12.7949 l -0.18849,6.70947 -2.01982,1.30458 c -2.62635,1.69634 -8.27545,4.45886 -11.23261,5.49297 -2.18584,0.76439 -6.17716,1.87621 -6.73537,1.87621 -0.14652,0 -0.32907,-3.26388 -0.44208,-7.9041 z"
       id="path5851"
       transform="translate(-24.988777,-33.264319)" />
  </g>
</svg>
