<svg id="svg" version="1.1" xmlns="http://www.w3.org/2000/svg" xmlns:xlink="http://www.w3.org/1999/xlink" width="400" height="400" viewBox="0, 0, 400,400"><g id="svgg"><path id="path0" d="M194.400 58.000 C 194.400 58.240,192.800 58.400,190.400 58.400 C 188.200 58.400,186.400 58.554,186.400 58.743 C 186.400 58.932,184.375 59.213,181.900 59.368 C 179.425 59.524,177.340 59.819,177.267 60.025 C 177.193 60.231,176.248 60.400,175.167 60.400 C 174.085 60.400,173.200 60.559,173.200 60.753 C 173.200 60.947,171.670 61.233,169.800 61.389 C 167.930 61.544,166.400 61.836,166.400 62.036 C 166.400 62.236,165.770 62.400,165.000 62.400 C 164.230 62.400,163.600 62.567,163.600 62.771 C 163.600 62.975,162.610 63.266,161.400 63.417 C 160.190 63.568,159.200 63.851,159.200 64.046 C 159.200 64.241,158.750 64.400,158.200 64.400 C 157.650 64.400,157.200 64.563,157.200 64.762 C 157.200 64.962,156.300 65.249,155.200 65.400 C 154.100 65.551,153.200 65.838,153.200 66.038 C 153.200 66.237,152.750 66.400,152.200 66.400 C 151.650 66.400,151.200 66.560,151.200 66.755 C 151.200 66.950,150.390 67.231,149.400 67.379 C 148.410 67.528,147.600 67.818,147.600 68.025 C 147.600 68.231,147.150 68.400,146.600 68.400 C 146.050 68.400,145.600 68.566,145.600 68.768 C 145.600 68.971,145.060 69.255,144.400 69.400 C 143.740 69.545,143.200 69.829,143.200 70.032 C 143.200 70.234,142.840 70.400,142.400 70.400 C 141.960 70.400,141.600 70.557,141.600 70.749 C 141.600 70.941,140.880 71.213,140.000 71.354 C 139.120 71.494,138.400 71.787,138.400 72.005 C 138.400 72.222,138.130 72.400,137.800 72.400 C 137.470 72.400,137.200 72.560,137.200 72.755 C 137.200 72.951,136.570 73.229,135.800 73.374 C 135.030 73.518,134.400 73.808,134.400 74.018 C 134.400 74.228,134.130 74.400,133.800 74.400 C 133.470 74.400,133.200 74.577,133.200 74.792 C 133.200 75.008,132.750 75.298,132.200 75.436 C 131.650 75.574,131.200 75.847,131.200 76.043 C 131.200 76.240,130.840 76.400,130.400 76.400 C 129.960 76.400,129.600 76.560,129.600 76.757 C 129.600 76.953,129.116 77.235,128.524 77.383 C 127.932 77.532,127.146 78.001,126.777 78.426 C 126.409 78.851,125.549 79.310,124.866 79.447 C 124.149 79.590,123.523 80.013,123.385 80.448 C 123.254 80.861,122.793 81.200,122.360 81.200 C 121.928 81.200,121.471 81.470,121.345 81.800 C 121.218 82.130,120.793 82.400,120.400 82.400 C 120.007 82.400,119.582 82.670,119.455 83.000 C 119.329 83.330,118.872 83.600,118.440 83.600 C 118.007 83.600,117.543 83.951,117.406 84.380 C 117.270 84.808,116.779 85.280,116.313 85.427 C 115.848 85.575,115.039 86.124,114.516 86.648 C 113.992 87.172,113.380 87.600,113.155 87.600 C 112.930 87.600,112.152 88.230,111.426 89.000 C 110.700 89.770,109.902 90.400,109.653 90.400 C 109.404 90.400,109.200 90.568,109.200 90.773 C 109.200 90.978,108.849 91.257,108.420 91.394 C 107.992 91.530,107.533 91.983,107.400 92.400 C 107.267 92.817,106.778 93.280,106.311 93.428 C 105.206 93.779,93.779 105.206,93.428 106.311 C 93.280 106.778,92.817 107.267,92.400 107.400 C 91.983 107.533,91.533 107.983,91.400 108.400 C 91.267 108.817,90.808 109.270,90.380 109.406 C 89.951 109.543,89.600 109.977,89.600 110.371 C 89.600 110.765,89.150 111.426,88.600 111.839 C 88.050 112.252,87.600 112.809,87.600 113.077 C 87.600 113.345,87.172 113.992,86.648 114.516 C 86.124 115.039,85.575 115.848,85.427 116.313 C 85.280 116.779,84.808 117.270,84.380 117.406 C 83.951 117.543,83.600 118.007,83.600 118.440 C 83.600 118.872,83.330 119.329,83.000 119.455 C 82.670 119.582,82.400 120.007,82.400 120.400 C 82.400 120.793,82.130 121.218,81.800 121.345 C 81.470 121.471,81.200 121.928,81.200 122.360 C 81.200 122.793,80.861 123.254,80.448 123.385 C 80.013 123.523,79.590 124.149,79.447 124.866 C 79.310 125.549,78.851 126.409,78.426 126.777 C 78.001 127.146,77.532 127.932,77.383 128.524 C 77.235 129.116,76.953 129.600,76.757 129.600 C 76.560 129.600,76.400 129.941,76.400 130.357 C 76.400 130.774,76.130 131.218,75.800 131.345 C 75.470 131.471,75.200 131.941,75.200 132.387 C 75.200 132.834,75.020 133.200,74.800 133.200 C 74.580 133.200,74.400 133.470,74.400 133.800 C 74.400 134.130,74.228 134.400,74.018 134.400 C 73.808 134.400,73.518 135.030,73.374 135.800 C 73.229 136.570,72.951 137.200,72.755 137.200 C 72.560 137.200,72.400 137.470,72.400 137.800 C 72.400 138.130,72.222 138.400,72.005 138.400 C 71.787 138.400,71.494 139.120,71.354 140.000 C 71.213 140.880,70.941 141.600,70.749 141.600 C 70.557 141.600,70.400 141.960,70.400 142.400 C 70.400 142.840,70.234 143.200,70.032 143.200 C 69.829 143.200,69.545 143.740,69.400 144.400 C 69.255 145.060,68.971 145.600,68.768 145.600 C 68.566 145.600,68.400 146.050,68.400 146.600 C 68.400 147.150,68.231 147.600,68.025 147.600 C 67.818 147.600,67.528 148.410,67.379 149.400 C 67.231 150.390,66.950 151.200,66.755 151.200 C 66.560 151.200,66.400 151.650,66.400 152.200 C 66.400 152.750,66.237 153.200,66.038 153.200 C 65.838 153.200,65.551 154.100,65.400 155.200 C 65.249 156.300,64.962 157.200,64.762 157.200 C 64.563 157.200,64.400 157.650,64.400 158.200 C 64.400 158.750,64.241 159.200,64.046 159.200 C 63.851 159.200,63.568 160.190,63.417 161.400 C 63.266 162.610,62.975 163.600,62.771 163.600 C 62.567 163.600,62.400 164.230,62.400 165.000 C 62.400 165.770,62.236 166.400,62.036 166.400 C 61.836 166.400,61.544 167.930,61.389 169.800 C 61.233 171.670,60.947 173.200,60.753 173.200 C 60.559 173.200,60.400 174.085,60.400 175.167 C 60.400 176.248,60.227 177.193,60.015 177.267 C 59.804 177.340,59.507 179.605,59.355 182.300 C 59.204 184.995,58.927 187.200,58.740 187.200 C 58.553 187.200,58.400 189.000,58.400 191.200 C 58.400 193.600,58.240 195.200,58.000 195.200 C 57.754 195.200,57.600 197.200,57.600 200.400 C 57.600 203.600,57.754 205.600,58.000 205.600 C 58.240 205.600,58.400 207.200,58.400 209.600 C 58.400 211.800,58.555 213.600,58.744 213.600 C 58.933 213.600,59.216 215.985,59.372 218.900 C 59.529 221.815,59.825 224.260,60.029 224.333 C 60.233 224.407,60.400 225.352,60.400 226.433 C 60.400 227.515,60.566 228.400,60.768 228.400 C 60.971 228.400,61.262 229.570,61.415 231.000 C 61.568 232.430,61.852 233.600,62.047 233.600 C 62.241 233.600,62.400 234.230,62.400 235.000 C 62.400 235.770,62.566 236.400,62.768 236.400 C 62.971 236.400,63.262 237.570,63.415 239.000 C 63.568 240.430,63.852 241.600,64.047 241.600 C 64.241 241.600,64.400 242.050,64.400 242.600 C 64.400 243.150,64.563 243.600,64.762 243.600 C 64.962 243.600,65.249 244.500,65.400 245.600 C 65.551 246.700,65.838 247.600,66.038 247.600 C 66.237 247.600,66.400 248.050,66.400 248.600 C 66.400 249.150,66.578 249.600,66.795 249.600 C 67.013 249.600,67.306 250.320,67.446 251.200 C 67.587 252.080,67.859 252.800,68.051 252.800 C 68.243 252.800,68.400 253.160,68.400 253.600 C 68.400 254.040,68.557 254.400,68.749 254.400 C 68.941 254.400,69.213 255.120,69.354 256.000 C 69.494 256.880,69.787 257.600,70.005 257.600 C 70.222 257.600,70.400 257.870,70.400 258.200 C 70.400 258.530,70.560 258.800,70.755 258.800 C 70.950 258.800,71.231 259.610,71.379 260.600 C 71.528 261.590,71.818 262.400,72.025 262.400 C 72.231 262.400,72.400 262.670,72.400 263.000 C 72.400 263.330,72.572 263.600,72.782 263.600 C 72.992 263.600,73.281 264.224,73.424 264.986 C 73.578 265.809,73.975 266.465,74.400 266.600 C 74.825 266.735,75.222 267.391,75.376 268.214 C 75.519 268.976,75.808 269.600,76.018 269.600 C 76.228 269.600,76.400 269.870,76.400 270.200 C 76.400 270.530,76.580 270.800,76.800 270.800 C 77.020 270.800,77.200 271.166,77.200 271.613 C 77.200 272.059,77.470 272.529,77.800 272.655 C 78.130 272.782,78.400 273.207,78.400 273.600 C 78.400 273.993,78.670 274.418,79.000 274.545 C 79.330 274.671,79.600 275.141,79.600 275.587 C 79.600 276.034,79.780 276.400,80.000 276.400 C 80.220 276.400,80.400 276.670,80.400 277.000 C 80.400 277.330,80.568 277.600,80.773 277.600 C 80.978 277.600,81.274 278.005,81.430 278.500 C 81.587 278.995,82.023 279.670,82.400 280.000 C 82.777 280.330,83.211 280.996,83.363 281.480 C 83.516 281.963,83.992 282.470,84.420 282.606 C 84.849 282.743,85.200 283.177,85.200 283.571 C 85.200 283.965,85.650 284.626,86.200 285.039 C 86.750 285.452,87.200 286.009,87.200 286.277 C 87.200 286.545,87.628 287.192,88.152 287.716 C 88.676 288.239,89.225 289.048,89.373 289.513 C 89.520 289.979,89.983 290.467,90.400 290.600 C 90.817 290.733,91.267 291.183,91.400 291.600 C 91.533 292.017,91.992 292.470,92.420 292.606 C 92.849 292.743,93.200 293.123,93.200 293.452 C 93.200 293.780,96.069 296.918,99.575 300.425 C 103.082 303.931,106.220 306.800,106.548 306.800 C 106.877 306.800,107.257 307.151,107.394 307.580 C 107.530 308.008,107.983 308.467,108.400 308.600 C 108.817 308.733,109.270 309.192,109.406 309.620 C 109.543 310.049,109.937 310.400,110.284 310.400 C 110.630 310.400,111.429 310.940,112.060 311.600 C 112.691 312.260,113.433 312.800,113.709 312.800 C 113.984 312.800,114.548 313.250,114.961 313.800 C 115.374 314.350,116.035 314.800,116.429 314.800 C 116.823 314.800,117.257 315.151,117.394 315.580 C 117.530 316.008,118.037 316.484,118.520 316.637 C 119.004 316.789,119.670 317.223,120.000 317.600 C 120.330 317.977,121.005 318.413,121.500 318.570 C 121.995 318.726,122.400 319.022,122.400 319.227 C 122.400 319.432,122.670 319.600,123.000 319.600 C 123.330 319.600,123.600 319.780,123.600 320.000 C 123.600 320.220,123.966 320.400,124.413 320.400 C 124.859 320.400,125.329 320.670,125.455 321.000 C 125.582 321.330,126.007 321.600,126.400 321.600 C 126.793 321.600,127.218 321.870,127.345 322.200 C 127.471 322.530,127.941 322.800,128.387 322.800 C 128.834 322.800,129.200 322.980,129.200 323.200 C 129.200 323.420,129.470 323.600,129.800 323.600 C 130.130 323.600,130.400 323.772,130.400 323.982 C 130.400 324.192,131.024 324.481,131.786 324.624 C 132.609 324.778,133.265 325.175,133.400 325.600 C 133.535 326.025,134.191 326.422,135.014 326.576 C 135.776 326.719,136.400 327.008,136.400 327.218 C 136.400 327.428,136.670 327.600,137.000 327.600 C 137.330 327.600,137.600 327.760,137.600 327.955 C 137.600 328.150,138.410 328.431,139.400 328.579 C 140.390 328.728,141.200 329.018,141.200 329.225 C 141.200 329.431,141.470 329.600,141.800 329.600 C 142.130 329.600,142.400 329.778,142.400 329.995 C 142.400 330.213,143.120 330.506,144.000 330.646 C 144.880 330.787,145.600 331.059,145.600 331.251 C 145.600 331.443,145.960 331.600,146.400 331.600 C 146.840 331.600,147.200 331.763,147.200 331.962 C 147.200 332.162,148.100 332.449,149.200 332.600 C 150.300 332.751,151.200 333.038,151.200 333.238 C 151.200 333.437,151.470 333.600,151.800 333.600 C 152.130 333.600,152.400 333.763,152.400 333.962 C 152.400 334.162,153.300 334.449,154.400 334.600 C 155.500 334.751,156.400 335.038,156.400 335.238 C 156.400 335.437,157.030 335.600,157.800 335.600 C 158.570 335.600,159.200 335.759,159.200 335.954 C 159.200 336.149,160.190 336.432,161.400 336.583 C 162.610 336.734,163.600 337.025,163.600 337.229 C 163.600 337.433,164.230 337.600,165.000 337.600 C 165.770 337.600,166.400 337.757,166.400 337.948 C 166.400 338.536,171.184 338.911,171.831 338.374 C 172.669 337.679,172.667 321.809,171.829 320.971 C 171.126 320.269,167.734 320.199,167.506 320.882 C 167.276 321.572,150.724 321.572,150.494 320.882 C 150.401 320.603,149.589 320.400,148.567 320.400 C 147.595 320.400,146.800 320.237,146.800 320.038 C 146.800 319.838,145.900 319.551,144.800 319.400 C 143.700 319.249,142.800 318.962,142.800 318.762 C 142.800 318.563,142.530 318.400,142.200 318.400 C 141.870 318.400,141.600 318.228,141.600 318.018 C 141.600 317.808,140.970 317.518,140.200 317.374 C 139.430 317.229,138.800 316.951,138.800 316.755 C 138.800 316.560,138.530 316.400,138.200 316.400 C 137.870 316.400,137.600 316.240,137.600 316.043 C 137.600 315.847,137.150 315.574,136.600 315.436 C 136.050 315.298,135.600 315.008,135.600 314.792 C 135.600 314.577,135.330 314.400,135.000 314.400 C 134.670 314.400,134.400 314.232,134.400 314.027 C 134.400 313.822,134.049 313.543,133.620 313.406 C 133.192 313.270,132.733 312.817,132.600 312.400 C 132.467 311.983,132.017 311.533,131.600 311.400 C 131.183 311.267,130.733 310.817,130.600 310.400 C 130.467 309.983,130.017 309.533,129.600 309.400 C 129.183 309.267,128.733 308.817,128.600 308.400 C 128.467 307.983,128.008 307.530,127.580 307.394 C 127.151 307.257,126.800 306.793,126.800 306.360 C 126.800 305.928,126.530 305.471,126.200 305.345 C 125.870 305.218,125.600 304.774,125.600 304.357 C 125.600 303.941,125.434 303.600,125.232 303.600 C 125.029 303.600,124.745 303.060,124.600 302.400 C 124.455 301.740,124.171 301.200,123.968 301.200 C 123.766 301.200,123.600 300.750,123.600 300.200 C 123.600 299.650,123.440 299.200,123.245 299.200 C 123.049 299.200,122.771 298.570,122.626 297.800 C 122.482 297.030,122.192 296.400,121.982 296.400 C 121.772 296.400,121.600 296.130,121.600 295.800 C 121.600 295.470,121.423 295.200,121.208 295.200 C 120.992 295.200,120.702 294.750,120.564 294.200 C 120.426 293.650,120.153 293.200,119.957 293.200 C 119.760 293.200,119.600 292.859,119.600 292.443 C 119.600 292.026,119.330 291.582,119.000 291.455 C 118.670 291.329,118.400 290.872,118.400 290.440 C 118.400 290.007,118.049 289.543,117.620 289.406 C 117.192 289.270,116.730 288.808,116.594 288.380 C 116.457 287.951,116.178 287.600,115.973 287.600 C 115.768 287.600,115.600 287.406,115.600 287.169 C 115.600 286.539,112.670 283.739,111.684 283.427 C 111.220 283.279,110.730 282.808,110.594 282.380 C 110.457 281.951,110.063 281.600,109.716 281.600 C 108.958 281.600,106.985 279.613,106.629 278.490 C 106.270 277.359,107.371 276.400,109.029 276.400 C 109.783 276.400,110.400 276.220,110.400 276.000 C 110.400 275.780,110.850 275.600,111.400 275.600 C 111.950 275.600,112.400 275.759,112.400 275.953 C 112.400 276.147,113.750 276.433,115.400 276.587 C 117.050 276.742,118.400 277.033,118.400 277.234 C 118.400 277.435,118.670 277.600,119.000 277.600 C 119.330 277.600,119.600 277.760,119.600 277.955 C 119.600 278.151,120.230 278.429,121.000 278.574 C 121.770 278.718,122.400 279.008,122.400 279.218 C 122.400 279.428,122.593 279.600,122.829 279.600 C 123.064 279.600,123.508 279.825,123.815 280.100 C 125.016 281.178,125.576 281.600,125.802 281.600 C 126.329 281.600,129.600 285.156,129.600 285.729 C 129.600 286.068,129.960 286.460,130.400 286.600 C 130.842 286.740,131.200 287.205,131.200 287.640 C 131.200 288.072,131.470 288.529,131.800 288.655 C 132.130 288.782,132.400 289.145,132.400 289.462 C 132.400 289.779,132.850 290.455,133.400 290.965 C 133.950 291.475,134.400 292.019,134.400 292.174 C 134.400 292.766,137.244 295.600,137.837 295.600 C 137.986 295.600,138.525 296.050,139.035 296.600 C 139.545 297.150,140.240 297.600,140.581 297.600 C 140.921 297.600,141.200 297.766,141.200 297.968 C 141.200 298.171,141.740 298.455,142.400 298.600 C 143.060 298.745,143.600 299.029,143.600 299.232 C 143.600 299.434,143.945 299.600,144.367 299.600 C 144.788 299.600,145.199 299.798,145.280 300.039 C 145.360 300.281,146.275 300.574,147.313 300.691 C 148.351 300.808,149.200 301.061,149.200 301.252 C 149.200 301.443,149.725 301.600,150.367 301.600 C 151.008 301.600,151.606 301.817,151.694 302.083 C 151.925 302.774,167.275 302.774,167.506 302.083 C 167.594 301.817,168.282 301.600,169.033 301.600 C 169.785 301.600,170.400 301.440,170.400 301.243 C 170.400 301.047,170.822 300.781,171.338 300.651 C 172.245 300.424,172.285 300.242,172.544 295.108 C 172.691 292.189,172.989 289.740,173.206 289.667 C 173.423 289.593,173.600 288.918,173.600 288.167 C 173.600 287.415,173.760 286.800,173.955 286.800 C 174.412 286.800,174.923 283.419,174.613 282.441 C 174.416 281.820,173.801 281.645,170.988 281.410 C 169.124 281.255,167.600 280.964,167.600 280.764 C 167.600 280.564,166.970 280.400,166.200 280.400 C 165.430 280.400,164.800 280.233,164.800 280.029 C 164.800 279.825,163.810 279.534,162.600 279.383 C 161.390 279.232,160.400 278.949,160.400 278.754 C 160.400 278.559,159.950 278.400,159.400 278.400 C 158.850 278.400,158.400 278.237,158.400 278.038 C 158.400 277.838,157.500 277.551,156.400 277.400 C 155.300 277.249,154.400 276.962,154.400 276.762 C 154.400 276.563,154.040 276.400,153.600 276.400 C 153.160 276.400,152.800 276.222,152.800 276.005 C 152.800 275.787,152.080 275.494,151.200 275.354 C 150.320 275.213,149.600 274.941,149.600 274.749 C 149.600 274.557,149.330 274.400,149.000 274.400 C 148.670 274.400,148.400 274.240,148.400 274.045 C 148.400 273.849,147.770 273.571,147.000 273.426 C 146.230 273.282,145.600 272.992,145.600 272.782 C 145.600 272.572,145.330 272.400,145.000 272.400 C 144.670 272.400,144.400 272.223,144.400 272.008 C 144.400 271.792,143.950 271.502,143.400 271.364 C 142.850 271.226,142.400 270.953,142.400 270.757 C 142.400 270.560,142.040 270.400,141.600 270.400 C 141.160 270.400,140.800 270.240,140.800 270.043 C 140.800 269.847,140.350 269.574,139.800 269.436 C 139.250 269.298,138.800 269.008,138.800 268.792 C 138.800 268.577,138.596 268.400,138.346 268.400 C 138.096 268.400,137.475 267.950,136.965 267.400 C 136.455 266.850,135.841 266.400,135.600 266.400 C 135.359 266.400,134.745 265.950,134.235 265.400 C 133.725 264.850,133.104 264.400,132.854 264.400 C 132.604 264.400,132.400 264.232,132.400 264.027 C 132.400 263.822,132.049 263.543,131.620 263.406 C 131.192 263.270,130.733 262.817,130.600 262.400 C 130.467 261.983,130.017 261.533,129.600 261.400 C 129.183 261.267,128.733 260.817,128.600 260.400 C 128.467 259.983,128.017 259.533,127.600 259.400 C 127.183 259.267,126.733 258.817,126.600 258.400 C 126.467 257.983,126.008 257.530,125.580 257.394 C 125.151 257.257,124.800 256.823,124.800 256.429 C 124.800 256.035,124.361 255.382,123.824 254.979 C 123.287 254.576,122.744 253.831,122.616 253.323 C 122.489 252.815,122.208 252.400,121.992 252.400 C 121.777 252.400,121.600 252.130,121.600 251.800 C 121.600 251.470,121.423 251.200,121.208 251.200 C 120.992 251.200,120.702 250.750,120.564 250.200 C 120.426 249.650,120.153 249.200,119.957 249.200 C 119.760 249.200,119.600 248.859,119.600 248.443 C 119.600 248.026,119.330 247.582,119.000 247.455 C 118.670 247.329,118.400 246.859,118.400 246.413 C 118.400 245.966,118.220 245.600,118.000 245.600 C 117.780 245.600,117.600 245.169,117.600 244.643 C 117.600 244.116,117.330 243.582,117.000 243.455 C 116.670 243.329,116.400 242.769,116.400 242.213 C 116.400 241.656,116.220 241.200,116.000 241.200 C 115.780 241.200,115.600 240.750,115.600 240.200 C 115.600 239.650,115.437 239.200,115.238 239.200 C 115.038 239.200,114.751 238.300,114.600 237.200 C 114.449 236.100,114.162 235.200,113.962 235.200 C 113.763 235.200,113.600 234.585,113.600 233.833 C 113.600 233.082,113.427 232.407,113.215 232.333 C 113.004 232.260,112.707 229.995,112.555 227.300 C 112.404 224.605,112.127 222.400,111.940 222.400 C 111.753 222.400,111.600 220.870,111.600 219.000 C 111.600 217.130,111.752 215.600,111.938 215.600 C 112.125 215.600,112.397 213.215,112.544 210.300 C 112.692 207.385,112.989 204.940,113.206 204.867 C 113.423 204.793,113.600 204.028,113.600 203.167 C 113.600 202.305,113.757 201.600,113.948 201.600 C 114.140 201.600,114.419 200.520,114.568 199.200 C 114.718 197.880,115.011 196.800,115.220 196.800 C 115.429 196.800,115.600 196.350,115.600 195.800 C 115.600 195.250,115.766 194.800,115.968 194.800 C 116.171 194.800,116.455 194.260,116.600 193.600 C 116.745 192.940,117.029 192.400,117.232 192.400 C 117.434 192.400,117.600 191.950,117.600 191.400 C 117.600 190.850,117.760 190.400,117.955 190.400 C 118.151 190.400,118.429 189.770,118.574 189.000 C 118.718 188.230,119.008 187.600,119.218 187.600 C 119.428 187.600,119.600 187.330,119.600 187.000 C 119.600 186.670,119.777 186.400,119.992 186.400 C 120.208 186.400,120.498 185.950,120.636 185.400 C 120.774 184.850,121.047 184.400,121.243 184.400 C 121.440 184.400,121.600 184.059,121.600 183.643 C 121.600 183.226,121.870 182.782,122.200 182.655 C 122.530 182.529,122.800 182.072,122.800 181.640 C 122.800 181.207,123.151 180.743,123.580 180.606 C 124.008 180.470,124.483 179.970,124.634 179.493 C 124.785 179.017,125.514 178.040,126.254 177.321 C 126.994 176.602,127.600 175.822,127.600 175.588 C 127.600 175.354,128.050 174.745,128.600 174.235 C 129.614 173.296,129.915 172.400,129.218 172.400 C 129.008 172.400,128.718 171.770,128.574 171.000 C 128.429 170.230,128.151 169.600,127.955 169.600 C 127.760 169.600,127.600 169.330,127.600 169.000 C 127.600 168.670,127.429 168.400,127.220 168.400 C 127.011 168.400,126.718 167.320,126.568 166.000 C 126.419 164.680,126.140 163.600,125.948 163.600 C 125.757 163.600,125.600 162.610,125.600 161.400 C 125.600 160.190,125.420 159.200,125.200 159.200 C 124.959 159.200,124.800 157.533,124.800 155.000 C 124.800 152.467,124.959 150.800,125.200 150.800 C 125.420 150.800,125.600 149.810,125.600 148.600 C 125.600 147.390,125.757 146.400,125.948 146.400 C 126.140 146.400,126.419 145.320,126.568 144.000 C 126.718 142.680,127.011 141.600,127.220 141.600 C 127.429 141.600,127.600 141.330,127.600 141.000 C 127.600 140.670,127.760 140.400,127.955 140.400 C 128.151 140.400,128.429 139.770,128.574 139.000 C 128.718 138.230,129.008 137.600,129.218 137.600 C 129.428 137.600,129.600 137.330,129.600 137.000 C 129.600 136.670,129.767 136.400,129.972 136.400 C 130.177 136.400,130.402 135.995,130.472 135.500 C 130.607 134.548,139.991 134.295,140.333 135.234 C 140.407 135.435,141.082 135.600,141.833 135.600 C 142.585 135.600,143.200 135.767,143.200 135.971 C 143.200 136.175,144.190 136.466,145.400 136.617 C 146.610 136.768,147.600 137.051,147.600 137.246 C 147.600 137.441,147.960 137.600,148.400 137.600 C 148.840 137.600,149.200 137.778,149.200 137.995 C 149.200 138.213,149.920 138.506,150.800 138.646 C 151.680 138.787,152.400 139.059,152.400 139.251 C 152.400 139.443,152.670 139.600,153.000 139.600 C 153.330 139.600,153.600 139.780,153.600 140.000 C 153.600 140.220,153.966 140.400,154.413 140.400 C 154.859 140.400,155.329 140.670,155.455 141.000 C 155.582 141.330,156.026 141.600,156.443 141.600 C 156.859 141.600,157.200 141.760,157.200 141.957 C 157.200 142.153,157.650 142.426,158.200 142.564 C 158.750 142.702,159.200 142.992,159.200 143.208 C 159.200 143.423,159.404 143.600,159.654 143.600 C 159.904 143.600,160.525 144.050,161.035 144.600 C 161.545 145.150,162.154 145.600,162.388 145.600 C 162.622 145.600,163.402 146.206,164.121 146.946 C 164.840 147.686,165.817 148.415,166.293 148.566 C 166.770 148.717,167.267 149.183,167.400 149.600 C 167.533 150.017,167.992 150.470,168.420 150.606 C 168.849 150.743,169.200 151.022,169.200 151.227 C 169.200 151.432,169.920 151.600,170.800 151.600 C 171.680 151.600,172.400 151.433,172.400 151.229 C 172.400 151.025,173.390 150.734,174.600 150.583 C 175.810 150.432,176.800 150.149,176.800 149.954 C 176.800 149.759,177.415 149.600,178.167 149.600 C 178.918 149.600,179.593 149.426,179.667 149.214 C 179.740 149.001,181.555 148.705,183.700 148.555 C 185.845 148.405,187.600 148.128,187.600 147.941 C 187.600 147.753,189.400 147.600,191.600 147.600 C 194.000 147.600,195.600 147.440,195.600 147.200 C 195.600 146.949,198.133 146.800,202.400 146.800 C 206.667 146.800,209.200 146.949,209.200 147.200 C 209.200 147.440,210.800 147.600,213.200 147.600 C 215.400 147.600,217.200 147.753,217.200 147.940 C 217.200 148.127,219.045 148.400,221.300 148.548 C 223.555 148.695,225.460 148.992,225.533 149.208 C 225.607 149.424,226.282 149.600,227.033 149.600 C 227.785 149.600,228.400 149.757,228.400 149.948 C 228.400 150.140,229.480 150.419,230.800 150.568 C 232.120 150.718,233.200 151.011,233.200 151.220 C 233.200 152.575,235.471 151.395,238.239 148.600 C 239.873 146.950,241.458 145.600,241.762 145.600 C 242.066 145.600,242.418 145.330,242.545 145.000 C 242.671 144.670,243.128 144.400,243.560 144.400 C 243.995 144.400,244.460 144.042,244.600 143.600 C 244.740 143.158,245.205 142.800,245.640 142.800 C 246.072 142.800,246.529 142.530,246.655 142.200 C 246.782 141.870,247.226 141.600,247.643 141.600 C 248.059 141.600,248.400 141.434,248.400 141.232 C 248.400 141.029,248.940 140.745,249.600 140.600 C 250.260 140.455,250.800 140.171,250.800 139.968 C 250.800 139.766,251.160 139.600,251.600 139.600 C 252.040 139.600,252.400 139.434,252.400 139.232 C 252.400 139.029,252.940 138.745,253.600 138.600 C 254.260 138.455,254.800 138.171,254.800 137.968 C 254.800 137.766,255.250 137.600,255.800 137.600 C 256.350 137.600,256.800 137.437,256.800 137.238 C 256.800 137.038,257.700 136.751,258.800 136.600 C 259.900 136.449,260.800 136.162,260.800 135.962 C 260.800 135.763,261.610 135.600,262.600 135.600 C 263.590 135.600,264.400 135.442,264.400 135.248 C 264.400 135.054,266.305 134.766,268.632 134.607 C 272.967 134.312,274.400 134.753,274.400 136.383 C 274.400 136.612,274.577 136.800,274.792 136.800 C 275.008 136.800,275.298 137.250,275.436 137.800 C 275.574 138.350,275.847 138.800,276.043 138.800 C 276.240 138.800,276.400 139.250,276.400 139.800 C 276.400 140.350,276.574 140.800,276.786 140.800 C 276.999 140.800,277.292 141.700,277.438 142.800 C 277.584 143.900,277.860 144.800,278.052 144.800 C 278.243 144.800,278.400 145.415,278.400 146.167 C 278.400 146.918,278.613 147.604,278.873 147.691 C 279.529 147.910,279.511 163.296,278.854 163.515 C 278.604 163.599,278.400 164.462,278.400 165.433 C 278.400 166.405,278.237 167.200,278.038 167.200 C 277.838 167.200,277.552 168.093,277.402 169.184 C 277.202 170.639,276.925 171.233,276.365 171.411 C 275.580 171.660,275.281 172.800,276.000 172.800 C 276.220 172.800,276.400 173.077,276.400 173.416 C 276.400 173.755,277.120 174.717,278.000 175.554 C 278.880 176.391,279.600 177.362,279.600 177.711 C 279.600 178.060,279.960 178.460,280.400 178.600 C 280.840 178.740,281.200 179.177,281.200 179.571 C 281.200 179.965,281.650 180.626,282.200 181.039 C 282.749 181.452,283.309 182.377,283.444 183.095 C 283.579 183.813,283.849 184.400,284.045 184.400 C 284.240 184.400,284.400 184.593,284.400 184.829 C 284.400 185.064,284.670 185.527,285.000 185.857 C 285.330 186.187,285.600 186.894,285.600 187.429 C 285.600 187.963,285.780 188.400,286.000 188.400 C 286.220 188.400,286.400 188.670,286.400 189.000 C 286.400 189.330,286.572 189.600,286.782 189.600 C 286.992 189.600,287.282 190.230,287.426 191.000 C 287.571 191.770,287.849 192.400,288.045 192.400 C 288.240 192.400,288.400 192.850,288.400 193.400 C 288.400 193.950,288.567 194.400,288.771 194.400 C 288.975 194.400,289.266 195.390,289.417 196.600 C 289.568 197.810,289.851 198.800,290.046 198.800 C 290.241 198.800,290.400 199.415,290.400 200.167 C 290.400 200.918,290.576 201.593,290.791 201.667 C 291.006 201.740,291.302 203.375,291.450 205.300 C 291.597 207.225,291.871 208.800,292.059 208.800 C 292.247 208.800,292.400 212.940,292.400 218.000 C 292.400 223.060,292.247 227.200,292.059 227.200 C 291.871 227.200,291.597 228.775,291.450 230.700 C 291.302 232.625,291.006 234.260,290.791 234.333 C 290.576 234.407,290.400 235.082,290.400 235.833 C 290.400 236.585,290.243 237.200,290.051 237.200 C 289.859 237.200,289.587 237.920,289.446 238.800 C 289.306 239.680,289.013 240.400,288.795 240.400 C 288.578 240.400,288.400 240.850,288.400 241.400 C 288.400 241.950,288.228 242.400,288.018 242.400 C 287.808 242.400,287.518 243.030,287.374 243.800 C 287.229 244.570,286.951 245.200,286.755 245.200 C 286.560 245.200,286.400 245.470,286.400 245.800 C 286.400 246.130,286.228 246.400,286.018 246.400 C 285.808 246.400,285.519 247.024,285.376 247.786 C 285.222 248.609,284.825 249.265,284.400 249.400 C 283.989 249.530,283.581 250.178,283.442 250.919 C 283.308 251.629,282.749 252.548,282.200 252.961 C 281.650 253.374,281.200 254.035,281.200 254.429 C 281.200 254.823,280.849 255.257,280.420 255.394 C 279.992 255.530,279.521 256.017,279.376 256.477 C 279.018 257.604,273.032 263.600,272.264 263.600 C 271.928 263.600,271.543 263.951,271.406 264.380 C 271.270 264.808,270.808 265.270,270.380 265.406 C 269.951 265.543,269.600 265.822,269.600 266.027 C 269.600 266.232,269.330 266.400,269.000 266.400 C 268.670 266.400,268.400 266.568,268.400 266.773 C 268.400 266.978,267.995 267.274,267.500 267.430 C 267.005 267.587,266.330 268.023,266.000 268.400 C 265.670 268.777,264.995 269.213,264.500 269.370 C 264.005 269.526,263.600 269.822,263.600 270.027 C 263.600 270.232,263.330 270.400,263.000 270.400 C 262.670 270.400,262.400 270.560,262.400 270.757 C 262.400 270.953,261.950 271.226,261.400 271.364 C 260.850 271.502,260.400 271.792,260.400 272.008 C 260.400 272.223,260.130 272.400,259.800 272.400 C 259.470 272.400,259.200 272.560,259.200 272.755 C 259.200 272.951,258.570 273.229,257.800 273.374 C 257.030 273.518,256.400 273.808,256.400 274.018 C 256.400 274.228,256.130 274.400,255.800 274.400 C 255.470 274.400,255.200 274.560,255.200 274.755 C 255.200 274.950,254.390 275.231,253.400 275.379 C 252.410 275.528,251.600 275.818,251.600 276.025 C 251.600 276.231,251.330 276.400,251.000 276.400 C 250.670 276.400,250.400 276.563,250.400 276.762 C 250.400 276.962,249.500 277.249,248.400 277.400 C 247.300 277.551,246.400 277.838,246.400 278.038 C 246.400 278.237,245.950 278.400,245.400 278.400 C 244.850 278.400,244.400 278.559,244.400 278.753 C 244.400 278.948,243.230 279.232,241.800 279.385 C 240.370 279.538,239.200 279.829,239.200 280.032 C 239.200 280.234,238.750 280.400,238.200 280.400 C 237.650 280.400,237.200 280.557,237.200 280.748 C 237.200 280.940,235.732 281.225,233.939 281.381 C 232.098 281.542,230.443 281.900,230.139 282.204 C 229.514 282.829,229.409 284.800,230.000 284.800 C 230.220 284.800,230.400 285.145,230.400 285.567 C 230.400 285.988,230.606 286.402,230.857 286.486 C 231.142 286.581,231.388 288.176,231.510 290.719 C 231.619 292.964,231.863 294.800,232.053 294.800 C 232.245 294.800,232.400 304.402,232.400 316.200 L 232.400 337.600 234.367 337.600 C 235.448 337.600,236.393 337.425,236.467 337.211 C 236.540 336.997,237.905 336.701,239.500 336.554 C 241.095 336.406,242.400 336.131,242.400 335.943 C 242.400 335.754,242.850 335.600,243.400 335.600 C 243.950 335.600,244.400 335.437,244.400 335.238 C 244.400 335.038,245.300 334.751,246.400 334.600 C 247.500 334.449,248.400 334.162,248.400 333.962 C 248.400 333.763,248.670 333.600,249.000 333.600 C 249.330 333.600,249.600 333.443,249.600 333.251 C 249.600 333.059,250.320 332.787,251.200 332.646 C 252.080 332.506,252.800 332.213,252.800 331.995 C 252.800 331.778,253.250 331.600,253.800 331.600 C 254.350 331.600,254.800 331.431,254.800 331.225 C 254.800 331.018,255.610 330.728,256.600 330.579 C 257.590 330.431,258.400 330.150,258.400 329.955 C 258.400 329.760,258.670 329.600,259.000 329.600 C 259.330 329.600,259.600 329.428,259.600 329.218 C 259.600 329.008,260.230 328.718,261.000 328.574 C 261.770 328.429,262.400 328.151,262.400 327.955 C 262.400 327.760,262.670 327.600,263.000 327.600 C 263.330 327.600,263.600 327.428,263.600 327.218 C 263.600 327.008,264.230 326.718,265.000 326.574 C 265.770 326.429,266.400 326.151,266.400 325.955 C 266.400 325.760,266.670 325.600,267.000 325.600 C 267.330 325.600,267.600 325.423,267.600 325.208 C 267.600 324.992,268.050 324.702,268.600 324.564 C 269.150 324.426,269.600 324.153,269.600 323.957 C 269.600 323.760,269.870 323.600,270.200 323.600 C 270.530 323.600,270.800 323.420,270.800 323.200 C 270.800 322.980,271.166 322.800,271.613 322.800 C 272.059 322.800,272.529 322.530,272.655 322.200 C 272.782 321.870,273.207 321.600,273.600 321.600 C 273.993 321.600,274.418 321.330,274.545 321.000 C 274.671 320.670,275.141 320.400,275.587 320.400 C 276.034 320.400,276.400 320.220,276.400 320.000 C 276.400 319.780,276.670 319.600,277.000 319.600 C 277.330 319.600,277.600 319.432,277.600 319.227 C 277.600 319.022,278.005 318.726,278.500 318.570 C 278.995 318.413,279.670 317.977,280.000 317.600 C 280.330 317.223,280.996 316.789,281.480 316.637 C 281.963 316.484,282.470 316.008,282.606 315.580 C 282.743 315.151,283.177 314.800,283.571 314.800 C 283.965 314.800,284.626 314.350,285.039 313.800 C 285.452 313.250,286.016 312.800,286.291 312.800 C 286.567 312.800,287.309 312.260,287.940 311.600 C 288.571 310.940,289.370 310.400,289.716 310.400 C 290.063 310.400,290.457 310.049,290.594 309.620 C 290.730 309.192,291.183 308.733,291.600 308.600 C 292.017 308.467,292.470 308.008,292.606 307.580 C 292.743 307.151,293.123 306.800,293.452 306.800 C 294.232 306.800,306.800 294.232,306.800 293.452 C 306.800 293.123,307.151 292.743,307.580 292.606 C 308.008 292.470,308.467 292.017,308.600 291.600 C 308.733 291.183,309.183 290.733,309.600 290.600 C 310.017 290.467,310.480 289.979,310.627 289.513 C 310.775 289.048,311.324 288.239,311.848 287.716 C 312.372 287.192,312.800 286.545,312.800 286.277 C 312.800 286.009,313.250 285.452,313.800 285.039 C 314.350 284.626,314.800 283.965,314.800 283.571 C 314.800 283.177,315.151 282.743,315.580 282.606 C 316.008 282.470,316.484 281.963,316.637 281.480 C 316.789 280.996,317.223 280.330,317.600 280.000 C 317.977 279.670,318.413 278.995,318.570 278.500 C 318.726 278.005,319.022 277.600,319.227 277.600 C 319.432 277.600,319.600 277.330,319.600 277.000 C 319.600 276.670,319.780 276.400,320.000 276.400 C 320.220 276.400,320.400 276.034,320.400 275.587 C 320.400 275.141,320.670 274.671,321.000 274.545 C 321.330 274.418,321.600 273.993,321.600 273.600 C 321.600 273.207,321.870 272.782,322.200 272.655 C 322.530 272.529,322.800 272.059,322.800 271.613 C 322.800 271.166,322.980 270.800,323.200 270.800 C 323.420 270.800,323.600 270.530,323.600 270.200 C 323.600 269.870,323.772 269.600,323.982 269.600 C 324.192 269.600,324.481 268.976,324.624 268.214 C 324.778 267.391,325.175 266.735,325.600 266.600 C 326.025 266.465,326.422 265.809,326.576 264.986 C 326.719 264.224,327.008 263.600,327.218 263.600 C 327.428 263.600,327.600 263.330,327.600 263.000 C 327.600 262.670,327.760 262.400,327.955 262.400 C 328.150 262.400,328.431 261.590,328.579 260.600 C 328.728 259.610,329.018 258.800,329.225 258.800 C 329.431 258.800,329.600 258.530,329.600 258.200 C 329.600 257.870,329.778 257.600,329.995 257.600 C 330.213 257.600,330.506 256.880,330.646 256.000 C 330.787 255.120,331.059 254.400,331.251 254.400 C 331.443 254.400,331.600 254.040,331.600 253.600 C 331.600 253.160,331.757 252.800,331.949 252.800 C 332.141 252.800,332.413 252.080,332.554 251.200 C 332.694 250.320,332.987 249.600,333.205 249.600 C 333.422 249.600,333.600 248.970,333.600 248.200 C 333.600 247.430,333.763 246.800,333.962 246.800 C 334.162 246.800,334.449 245.900,334.600 244.800 C 334.751 243.700,335.038 242.800,335.238 242.800 C 335.437 242.800,335.600 242.365,335.600 241.833 C 335.600 241.302,335.798 240.801,336.039 240.720 C 336.281 240.640,336.574 239.725,336.691 238.687 C 336.808 237.649,337.061 236.800,337.252 236.800 C 337.443 236.800,337.600 236.260,337.600 235.600 C 337.600 234.940,337.765 234.400,337.966 234.400 C 338.167 234.400,338.458 233.050,338.613 231.400 C 338.767 229.750,339.053 228.400,339.247 228.400 C 339.441 228.400,339.600 227.515,339.600 226.433 C 339.600 225.352,339.767 224.407,339.971 224.333 C 340.175 224.260,340.471 221.815,340.628 218.900 C 340.784 215.985,341.067 213.600,341.256 213.600 C 341.445 213.600,341.600 207.660,341.600 200.400 C 341.600 193.140,341.447 187.200,341.260 187.200 C 341.073 187.200,340.796 184.995,340.645 182.300 C 340.493 179.605,340.196 177.340,339.985 177.267 C 339.773 177.193,339.600 176.248,339.600 175.167 C 339.600 174.085,339.441 173.200,339.247 173.200 C 339.053 173.200,338.767 171.670,338.611 169.800 C 338.456 167.930,338.164 166.400,337.964 166.400 C 337.764 166.400,337.600 165.770,337.600 165.000 C 337.600 164.230,337.433 163.600,337.229 163.600 C 337.025 163.600,336.734 162.610,336.583 161.400 C 336.432 160.190,336.149 159.200,335.954 159.200 C 335.759 159.200,335.600 158.750,335.600 158.200 C 335.600 157.650,335.437 157.200,335.238 157.200 C 335.038 157.200,334.751 156.300,334.600 155.200 C 334.449 154.100,334.162 153.200,333.962 153.200 C 333.763 153.200,333.600 152.750,333.600 152.200 C 333.600 151.650,333.437 151.200,333.238 151.200 C 333.038 151.200,332.751 150.300,332.600 149.200 C 332.449 148.100,332.162 147.200,331.962 147.200 C 331.763 147.200,331.600 146.840,331.600 146.400 C 331.600 145.960,331.443 145.600,331.251 145.600 C 331.059 145.600,330.787 144.880,330.646 144.000 C 330.506 143.120,330.213 142.400,329.995 142.400 C 329.778 142.400,329.600 142.130,329.600 141.800 C 329.600 141.470,329.431 141.200,329.225 141.200 C 329.018 141.200,328.728 140.390,328.579 139.400 C 328.431 138.410,328.150 137.600,327.955 137.600 C 327.760 137.600,327.600 137.330,327.600 137.000 C 327.600 136.670,327.428 136.400,327.218 136.400 C 327.008 136.400,326.719 135.776,326.576 135.014 C 326.422 134.191,326.025 133.535,325.600 133.400 C 325.175 133.265,324.778 132.609,324.624 131.786 C 324.481 131.024,324.192 130.400,323.982 130.400 C 323.772 130.400,323.600 130.130,323.600 129.800 C 323.600 129.470,323.420 129.200,323.200 129.200 C 322.980 129.200,322.800 128.834,322.800 128.387 C 322.800 127.941,322.530 127.471,322.200 127.345 C 321.870 127.218,321.600 126.793,321.600 126.400 C 321.600 126.007,321.330 125.582,321.000 125.455 C 320.670 125.329,320.400 124.859,320.400 124.413 C 320.400 123.966,320.220 123.600,320.000 123.600 C 319.780 123.600,319.600 123.330,319.600 123.000 C 319.600 122.670,319.432 122.400,319.227 122.400 C 319.022 122.400,318.726 121.995,318.570 121.500 C 318.413 121.005,317.977 120.330,317.600 120.000 C 317.223 119.670,316.789 119.004,316.637 118.520 C 316.484 118.037,316.008 117.530,315.580 117.394 C 315.151 117.257,314.800 116.823,314.800 116.429 C 314.800 116.035,314.350 115.374,313.800 114.961 C 313.250 114.548,312.800 113.991,312.800 113.723 C 312.800 113.455,312.372 112.808,311.848 112.284 C 311.324 111.761,310.775 110.952,310.627 110.487 C 310.480 110.021,310.017 109.533,309.600 109.400 C 309.183 109.267,308.733 108.817,308.600 108.400 C 308.467 107.983,308.008 107.530,307.580 107.394 C 307.151 107.257,306.800 106.877,306.800 106.548 C 306.800 105.768,294.232 93.200,293.452 93.200 C 293.123 93.200,292.743 92.849,292.606 92.420 C 292.470 91.992,292.017 91.533,291.600 91.400 C 291.183 91.267,290.730 90.808,290.594 90.380 C 290.457 89.951,290.063 89.600,289.716 89.600 C 289.370 89.600,288.571 89.060,287.940 88.400 C 287.309 87.740,286.567 87.200,286.291 87.200 C 286.016 87.200,285.452 86.750,285.039 86.200 C 284.626 85.650,283.965 85.200,283.571 85.200 C 283.177 85.200,282.743 84.849,282.606 84.420 C 282.470 83.992,281.963 83.516,281.480 83.363 C 280.996 83.211,280.330 82.777,280.000 82.400 C 279.670 82.023,278.995 81.587,278.500 81.430 C 278.005 81.274,277.600 80.978,277.600 80.773 C 277.600 80.568,277.330 80.400,277.000 80.400 C 276.670 80.400,276.400 80.220,276.400 80.000 C 276.400 79.780,276.034 79.600,275.587 79.600 C 275.141 79.600,274.671 79.330,274.545 79.000 C 274.418 78.670,273.993 78.400,273.600 78.400 C 273.207 78.400,272.782 78.130,272.655 77.800 C 272.529 77.470,272.059 77.200,271.613 77.200 C 271.166 77.200,270.800 77.020,270.800 76.800 C 270.800 76.580,270.530 76.400,270.200 76.400 C 269.870 76.400,269.600 76.228,269.600 76.018 C 269.600 75.808,268.976 75.519,268.214 75.376 C 267.391 75.222,266.735 74.825,266.600 74.400 C 266.465 73.975,265.809 73.578,264.986 73.424 C 264.224 73.281,263.600 72.992,263.600 72.782 C 263.600 72.572,263.330 72.400,263.000 72.400 C 262.670 72.400,262.400 72.231,262.400 72.025 C 262.400 71.818,261.590 71.528,260.600 71.379 C 259.610 71.231,258.800 70.950,258.800 70.755 C 258.800 70.560,258.530 70.400,258.200 70.400 C 257.870 70.400,257.600 70.222,257.600 70.005 C 257.600 69.787,256.880 69.494,256.000 69.354 C 255.120 69.213,254.400 68.941,254.400 68.749 C 254.400 68.557,254.040 68.400,253.600 68.400 C 253.160 68.400,252.800 68.243,252.800 68.051 C 252.800 67.859,252.080 67.587,251.200 67.446 C 250.320 67.306,249.600 67.013,249.600 66.795 C 249.600 66.578,249.150 66.400,248.600 66.400 C 248.050 66.400,247.600 66.237,247.600 66.038 C 247.600 65.838,246.700 65.551,245.600 65.400 C 244.500 65.249,243.600 64.962,243.600 64.762 C 243.600 64.563,243.150 64.400,242.600 64.400 C 242.050 64.400,241.600 64.241,241.600 64.047 C 241.600 63.852,240.430 63.568,239.000 63.415 C 237.570 63.262,236.400 62.971,236.400 62.768 C 236.400 62.566,235.770 62.400,235.000 62.400 C 234.230 62.400,233.600 62.241,233.600 62.047 C 233.600 61.852,232.430 61.568,231.000 61.415 C 229.570 61.262,228.400 60.971,228.400 60.768 C 228.400 60.566,227.515 60.400,226.433 60.400 C 225.352 60.400,224.407 60.227,224.333 60.015 C 224.260 59.804,221.995 59.507,219.300 59.355 C 216.605 59.204,214.400 58.927,214.400 58.740 C 214.400 58.553,212.420 58.400,210.000 58.400 C 207.333 58.400,205.600 58.242,205.600 58.000 C 205.600 57.752,203.467 57.600,200.000 57.600 C 196.533 57.600,194.400 57.752,194.400 58.000 " stroke="none" fill="#040404" fill-rule="evenodd"></path><path id="path1" d="" stroke="none" fill="#080404" fill-rule="evenodd"></path><path id="path2" d="" stroke="none" fill="#080404" fill-rule="evenodd"></path><path id="path3" d="" stroke="none" fill="#080404" fill-rule="evenodd"></path><path id="path4" d="" stroke="none" fill="#080404" fill-rule="evenodd"></path></g></svg>